<?xml version="1.0" encoding="UTF-8"?>
<svg id="Laag_2" data-name="Laag 2" xmlns="http://www.w3.org/2000/svg" viewBox="0 0 1553.96 717.03">
  <defs>
    <style>
      .cls-1 {
        fill: #f32389;
      }
    </style>
  </defs>
  <g id="Laag_1-2" data-name="Laag 1">
    <g>
      <path class="cls-1" d="M283.06,677.57c2.91-.86,6.81-.48,6.97,3.28.08,1.75-2,3.54-2.29,6.64-.56,5.89-.67,14.34,2.19,19.42-1.54,2.69-4.89,3.43-7.36,1.55-2.9-2.21-.26-3.94-.08-5.99.31-3.62.95-12.48.76-15.66-.13-2.23-6.48-7.4-.19-9.24Z"/>
      <g>
        <path class="cls-1" d="M126.53,272.04c-1.46-.42-4.4-.62-5.33-1.79-2.03-2.54,1.41-4.92-6.34-5.65-2.64-4.37,3.09-6.1,3.37-7.25.46-1.93-5.89-6.19,2.11-7.62s10.33-1.2,18.18-4.32c13.22-5.27,26.71-12.52,39.31-19.17,21.39-11.3,41.93-24.16,62.51-36.81,1.97-2.23-.83-2.65-1.23-4.08l35.94-55.34c4.63-1.26,5.16,4.28,7.16,7.11,4.15,5.84,3.95,2.06,7.4,2.29,1.28.08,2.44,1.3,3.84,1.46,3.73.43,7.02-.28,10.85,1.24,27.61-20.05,53.45-42.5,79.67-64.33l56.51-10.23c.91-.7.95-1.63,1.08-2.66,1.81-13.83-1.45-31.52,0-45.78-.49-3.62-6.21-5.93-.76-10.42C444.38,5.76,460.54.02,465.16,0c4.45-.02,24.44,6.4,26.98,9.81,3.03,4.06-.7,4.55-1.15,7.81-1.18,8.7.36,21.45.07,30.79-.07,2.24-1.99,8.42-.08,9.76,2.41,1.69,10.29-2.4,13.56-.8,1.57.77,9.3,17.48,11.33,20.15.93,1.32,2.63,1.65,4.11,1.89,12.7,1.99,26.77,2.43,39.67,3.82,48.9,5.29,97.93,10.35,147,14.98,8.7.82,17.47,2.03,26.15,3.05,2.52-2.37.49-5.81.55-8.01.25-8.49,1.55-17.62.73-26.19-.57-5.95-5.87-6.13,2.73-11.42,11.19-6.88,25.27-6.37,37.15-1.45,1.18.49,5.33,3.65,5.68,4.83.92,3.06-1.04,4.07-1.39,6.55-.81,5.74-.79,28.02,0,33.79.51,3.75,3.31,3.04,4.17,4.82s-.22,4.65.8,5.34c1.76.41,3.48,1.01,5.27,1.33,38.71,6.88,81.22,9.96,120.56,15.17,16.63,2.2,33.13,5.06,49.7,7.29,20.25,2.73,40.64,4.54,60.73,8.3l6.34-5.61c-1.23-7.62-.88-15.51-.82-23.24.02-2.01.94-3.8.82-5.94-.17-3.18-2.89-5.51-.71-8.94,4.39-6.89,25.35-7.6,32.33-4.74.87.36,5.84,4,6.51,4.73,3.02,3.26.3,4.74.06,8.18-.53,7.74.21,16.16.04,24.01-.05,2.25-1.18,4.34-.78,6.68.48,2.82,3.37,2.32,4.94,4.09.89,1,1.13,3.03,1.78,3.49,2.25,1.61,48.32-6.54,55-5.51l58.8,57.42,30.83-3.38.89-.81c.47-4.9,1.03-9.8,7.19-6.99l22.84,40.93c.39,5.23-4.5,4.07-8.28,4.08.52,5.04-.69,11.28-.04,16.15.57,4.3,10.97,10.56,14.81,12.93,9.44,5.81,24.56,13.83,35.15,16.59,3.07.8,14.03,1.46,14.98,3.02,1.82,2.99-2.13,4.14-2.53,5.78-.35,1.41,1.27,4.36.64,6.22-6.89-.93-3.79,8.3-12.76,5.99v133.75c.66,1.07,1.5,1.03,2.59,1.16,14,1.64,34.03-.2,48.82-.07,8.02.07,12.75-3.25,20.98-3.7,7.43-.41,7.6.38,12.13,5.89,5.3-1.13,17-4.62,20.92.05.92,1.09.74,2.76,2,3.31,1.57.69,4.9-.7,7.53-.11,2.85.64,3.54,3.63,8.49,4.25,8.33,1.03,12.76-2.13,19.75-3.32,10.3-1.75,7.51,3.51,11.74,6.33,3.34,2.23,16.44,1.8,20.96,1.61,5.18-.22,14.01-3.68,17.61,1.07,1.39,1.84,1.12,5.81,2.71,6.34,7.44-.82,15.11-2.38,22.45,0,2.89.94,4.81,3.8,7.62,4.37,10.16,2.06,25.96,1.29,35.34,4.41,4.34,1.44,5.97,5.56,3.93,9.68-.79.88-1.79,1.25-2.88,1.61-3.15,1.05-10.31,1.79-14.13,2.37-60.35,9.27-121.42,14.22-182.16,19.57-22.63,1.99-45.23,4.19-67.8,6.07l-.12,61.78c1.64,10.57,2.82,26.04,1.58,36.71-.31,2.67-1.24,3.18-3.84,2.26l-.69-1.55.43-28.89c-.81-1.11-4.56-.78-6.05-.69-9.25.6-19.94,3.2-29.35,4.39-30.71,3.87-61.41,7.63-92.14,11.35-.79-.06-2.64,1.46-2.64,1.86v35.97c0,.64-1.55,1.34-2.54,1.04-3.91-1.17-1.22-18.4-1.15-22.04.04-1.88-.75-3.48-.74-5.15.01-2.49,2.32-9.84-.82-11.33l-66.38-8.61-1.9,1.86.02,40.09c-3.44.33-4.06-2.37-3.74-5.24-12.3,1.42-24.76,2.8-37.06,4.56-6.87.98-14.1,1.95-20.98,3.01-8.96,1.38-17.89,3.46-26.91,4.58l-1.32,1.71c.04,4.11,15.16,9.23,16.59,11.18.95,1.29,1.18,3.66-.51,4.14-2.51.72-17.4-9.02-20.62-10.75-14.53-7.79-29.18-15.45-43.96-22.77-15.71,0-31.44,3.29-47.09,5.07-10.71,1.22-21.89-.43-31.05,5.69-13.99,9.34-26.46,21.24-39.86,31.36-10.35,7.81-21.26,14.87-31.84,22.14-1.97,1.36-3.54,4.61-6.17,5.13l-46.32-8.93-89.08,13.55c-2.47,2.16-.57,5.28-.51,7.84.07,2.86.41,18.99-.89,19.78l-3.14.14c-1.06-.26-1.22-3.14-1.29-4.12-.5-7.15,2.3-40.51.09-43.56-.41-.56-1.02-.96-1.75-.86l-69.44,10.41c-1.03.63-1.31,14.91-.74,16.63.73,2.17,5.06,1.88,7.04,2.71,5.09,2.11,7.46,6.05,11.62,9.36,4.95,8.54-11.52,9.95-17.01,10.81-6.38.99-18.78,3-24.73,3.02-2.03,0-3.9-.97-5.85-1.33-1.15-.78-.18-15.18,1.05-16.21.94-.79,4.52-.63,4.52-2.98v-16.48c0-.58-1.73-1.43-2.52-1.1l-91.14,13.55c-2.45,3.82,1.41,21.78-2.04,23.06h-2.47c-1.11-.73-1.09-19.23-.85-22.05,4.45-52.26.24-112.02.75-165.6.13-14.12,2.2-29.31.83-43.47-.15-1.51.03-2.83-1.54-3.7l-205.51,17.61v106.02c0,.59-1.82,1.68-2.65,1.85-5.29,1.08-11.89.88-17.21,1.53-54.92,6.7-109.89,13.42-165,19.48-8.16.9-19.32,3.63-27.1,3.66-4.61.02-5.23-2.24-5.57-6.27-1.95-23.26,2.85-51.56-.05-74.15-.11-.89-.4-1.77-.77-2.58-.31-.2-.67-.14-1.02-.17-5.88-.52-1.03,6.98-7.19,4.99-2.49-8.52-.53-11.68,8.35-12l.71-62.99c-.64-3.38-8.58-1.75-11.08-3.55l-.82-7.54c.34-.95,1-1.52,1.94-1.85,5.36-1.87,12.05-2.45,17.62-4.13,22.22-6.68,44.19-16.63,65.61-25.46l.61-2.06c-7.27-5.71-10.06-12.45-11.58-21.4-.37-2.15.32-4.65-.07-6.67-.33-1.73-1.96-2.01-2.29-4.47-1.23-9.12,9.97-13.44,9.77-18.7-.13-3.45-2.07-6.04-5.58-6.46-8.64-1.04-9.1,3.13-15.53,4.74-11.32,2.84-8.77-7.75-14.14-11.83-3.26-2.48-4.33.93-7.07,1.01-.48.02-8.96-1.6-9.39-1.79-4.68-2.07-2.09-10.93-8.66-10.16-4.84.57-4.11,10.48-6.3,13.22-2.02,2.52-7.79,1.16-8.73,2.52-.87,5.81-.52,9.5-7.43,9.83-3.86.18-9.89-2.88-9.38,3.24.22,2.62,3.3,6.18.35,8.7-3.66,1.14-5.01-8.79-4.57-11.25,1.76-9.87,12.76-4.13,14.75-5.54,1.39-2.57.14-5.81,2.18-8.33,2.4-2.96,6.61-1,9.62-2.76.68-2.83,1.38-7.06,2.83-9.52,1.14-1.94,5.19-4.14,5.49-5.06.56-1.69-4.86-12.33-6.34-13.69-1.92-1.75-4.14-.89-4.78-4.96-.52-3.29,2.07-18.56,3.14-22.25,1.34-4.66,6.84-3.71,10.72-3.59,25.2.79,50.52,3.06,75.69,3.81,3.97.12,9.96.71,13.16-1.15v-38.59ZM446.03,16.16v49.45c0,.47,1.11,1.04,1.8,1.09.61.04,11.4-2.06,11.93-2.35,2.84-1.54,1.22-8.14,1.23-10.69.03-10.31.76-20.67.78-30.76,0-2.05.73-11.11-1.17-11.56l-14.57,4.83ZM466.28,12.42v47.2c0,.27-.93.77-.43,1.84.58.8,1.06,1.32,2.13,1.34,2,.04,16.85-2.61,17.45-3.53l.24-43.01c-.24-.9-1-.98-1.7-1.3-1.13-.52-15.03-3.78-15.83-3.69-.7.08-1.68.52-1.87,1.15ZM738.53,64.87v34.47c0,.8,1.64,1.12,2.51,1.08,1.78-.08,10.45-1.37,10.89-2.68.15-10.21.16-20.44.07-30.66-.02-1.98,1.35-3.81-.35-5.62l-1.33-.58-11.79,3.98ZM757.28,98.21c2.98.07,14.73,3.32,16.15.79l.18-34.05c-.46-2.58-13.51-3.95-16.33-4.21v37.46ZM499.28,62.25l-113.01,20.09c-13.35,10.13-25.89,21.65-38.88,32.34-10.97,9.03-22.56,17.36-33.38,26.6-3.25,4.16,5.55,1.92,6.98,2.05,5.75.53,17.31,3.53,21.79,3.43,1.25-.03,2.71-1.44,4.59-1.32,1.78.11,3.24,1.89,4.71,2.08s3.24-.79,5.08-.67c1.73.12,2.93,1.32,3.89,1.4,1.24.11,2.34-1.24,3.68-1.35,1.77-.14,2.96,1.34,4.51,1.51,2.43.25,5.04-1.52,8.04-.6s3.05,5.81,2.59,8.3c-.5,2.69-13.04,33.74-14.41,35.05-1.24,1.19-3.21,1.18-4.55,2.19-2.2,1.66-4.54,4.24-6.76,5.98-18.86,14.82-38.71,28.59-58.85,41.6.72,1.61,5.48,1.23,7.16,1.16,19.96-.85,39.93-3.06,59.96-3.03l81.81-5.18c3.33-3.87,5.57-6.06,7.95-10.79,16.14-32.11,26.32-75.15,35.22-110.18,3.71-14.59,9.22-32.3,11.72-46.73.23-1.31.25-2.62.18-3.94ZM505.2,66.82l-2.16-.09-17.25,72.68c2.31-.67,5.2.87,7.09.73,1.39-.1,2.43-1.37,3.82-1.46s2.83.94,4.41.75,2.68-2.01,3.92-2.12c1.15-.1,2.04,1.08,2.88,1.09,1.08.02,2.86-1.78,4.57-1.98,5.3-.62,9.74-1.46,14.96-2.22,1.7-.25,3.56.24,5.18-.06s2.61-1.89,3.93-2.09c1.72-.26,3.43,1.64,4.71-.5l-36.07-64.74ZM621.53,167.52v35.22c-.47.74-1.04.97-1.88,1.12-6.95,1.27-17.32-.57-24.37-1.49l.17,2.1c12.79,11.03,25.75,23.39,40.57,31.75,11.22,6.33,12.71,5.39,24.88,6.62,9.37.95,2.15,6.42,3.39,8.22,7.91,1.65,16.3.41,24.39.74,12.95.53,26.03,1.8,38.94,2.31,7.74.31,15.52.37,23.26.7l60.42-54.25c2.66-3.29-2.76-3.27-3.06-6.08-.81-7.68,12.17,3.25,13.87,3.3l43.48-5.14c3.55.59,17.06,15.13,19.19,13.48l-10.07-15.03c-1.27-1.75-3.66-1.29-5.22-2.27-2.97-1.87-.96-4.96-1.15-7.81-.46-6.93-1.41-13.9-1.45-20.87.25-.97.91-1.08,1.76-1.23,7.94-1.39,17.24-1.52,25.34-2.41l2.46-1.35.37-4.44c6.63-.51,4.43,1.52,5.92,5.63,4.06,11.17,15.77,21.07,22.43,30.85.74,3.7-2.64,3.39-2.9,4.47l-.86,34.19-1.1,1.15-5.15.1-.35,1.85,46.2,34.02c32.77,4.54,66.59,3.46,99.65,6.84,3.46-1.05,17.17,1.39,19.12.4,1.68-.84,4.19-11.98,4.42-14.34.69-7.07-11.16-33.89-14.2-42.6-4.81-13.78-9.22-27.75-13.87-41.59-2.37-3.5-7.86-1.22-10.53-2.97-4.15-2.71-10.28-17.24-15.09-21.08-52.05-7.88-104.37-14.17-156.52-21.03-27.9-3.67-58.68-9.8-86.34-11.89-1.62-.12-3.26.03-4.87,0v13.86c0,.2-1.17,2.06-1.5,2.26l-26.23-3.03-10.47-20.82c-1.43-2.21-12.28-1.02-15.42-1.27-32.71-2.54-65.6-7.17-98.27-10.47-36.88-3.73-73.79-7.01-110.61-11.24-.89.85,6.33,13.61,7.37,15.49,4.21,7.66,9.69,18.25,14.5,25.22.91,1.32,2.05,2.51,3.36,3.44,4.29-3.44,9.41-4.94,7.12-11.39.8-3.12,6.5-1.81,8.9-2.04-.68,3.07.61,12.27,4.14,12.78,3.72-1.34,22.71-1.52,23.99-3.78.79-1.39-.16-4.06,1.06-4.93h4.6c1.23.86.46,4.23.88,5.87,1.91,7.58,15.38,19.54,20.86,25.61,1.59,1.76,9.51,10.12,9.92,11.14,1.89,4.65-5,4.71-5.46,6.14ZM1048.28,101.58v32.97c0,.2.76,1.78,1.29,1.88l9.13.65c1.62-1.37.73-29.42.49-33.66-1.89-.74-10.18-4.29-10.91-1.84ZM1038.34,101.4c-1.52.19-7.6,1.47-7.96,2.53l-.52,32.54c.94,1.34,10.01.32,12.04-.05.86-.16,1.52-.23,1.78-1.22l.86-32.12-1.23-1.76c-1.67-.35-3.3-.12-4.96.09ZM753.52,103.46c-1.8.01-4.01-.56-5.24,1.13l4.13,9.36,1.89-.45-.77-10.04ZM778.28,124.81v-17.23c-.45-.8-1.13-.86-1.91-1.09-2.2-.64-13.75-2.33-15.77-2.22-.87.05-2.57,1.37-2.57,1.81v16.48c0,.2.77,1.75,1.26,1.9l17.75,1.35,1.24-1ZM558.52,125.93l-23.24,46.79,52.05,4.88,1.19-1.82c-8.87-13.31-18.08-26.77-26.1-40.62-1.63-2.82-3.98-6.01-3.9-9.22ZM590.03,134.18c-2.61-.11-20.89,1.57-20.98,3.37,3.54,3.36,9.48,20.1,15.23,18.28,2.95-.93,5.7-18.14,5.76-21.65ZM612.99,152.44c-5.21-5.88-10.89-11.39-15.79-17.56l-2.67-.7c-.06,6.61-2.86,13.93-3.47,20.22-.18,1.87.53,2.58,2.36,2.99l24.35,1.51c.63-.53-4.16-5.75-4.78-6.46ZM285.53,180.63l-11.63-40.45-26.62,42.69,38.25-2.24ZM523.07,173.67c1.13-.93,3.04-5.62,4.24-7.37,4.77-6.95,12.45-15.72,16.07-22.92.65-1.3,1.4-1.23-.23-2.46l-55.01,8.34-4.64,28.03c1.89,1.16,26.1-2.18,30.42-2.64,2.67-.28,7.07.74,9.16-.97ZM1043.78,141.67h-11.25c-.48,2.77,2.44,3.8,3.75,5.62,2.39,3.3,4.22,7.15,7.12,10.1,2.65.03-.52-13.77.37-15.72ZM1048.28,143.54c-.98,5.84.72,14.09,0,20.23,0,1.45,6.78,1.73,7.89.39,1.02-3.79,8.88-16.23,8.65-19.11-.07-.88-.37-1.52-1.28-1.77l-14.39-1.49c-.13.58-.81,1.34-.87,1.75ZM1122.53,143.92l-54.59,5.74c-.92.39-7.27,15.4-7.51,17.31-.44,3.51,2.77,12.02,4.01,15.88,7.67,23.94,17.41,47.3,25.69,71.03.02,2.72-.26,6.05-.66,8.72s-3.64,7.56-.14,8.55c19.85-1.95,39.87-.51,59.69-2.26l1.88-1.88-28.36-123.09ZM1175.78,197.12c.21-1.17-.12-1.73-.71-2.66-3.21-4.96-13.81-13.02-18.43-17.55-6.66-6.52-20.78-23.17-27.34-27.38-1.07-.69-1.78-.68-1.51.75,8.28,31.39,13.7,63.57,21.97,94.95.95,3.62,3.76,15.87,5.11,18.12.95,1.58,5.93,6.05,7.97,6.27,14.09-.07,28.14,2.58,42.19,1.31-16.03-10.77-29.37-24.69-40.94-40.02-.49-.65-1.61-.91-2.16-1.58l-2.52-30.96,1-1.24h15.38ZM286.29,149.91c-.17,1.06.09,1.99.36,3,1.45,5.41,6.58,16.16,9.25,21.48,1.12,2.24,2.48,6.49,5.02,6.97l60.65,4.34,2.11-2.31,9.6-24.1-87-9.38ZM478.46,181.96c-.68-.64-.87-2.15-.85-3.1.07-3.78,5.54-22.92,4.42-24.45-.42-.06-.98.44-1.13.74-1.77,3.65-3.26,12.62-4.65,17.08-6.01,19.24-14.17,36.34-20.82,54.88-.5,1.38-2.24,5.83-1.57,6.77l74.67,3.7c.28-1.2-.41-1.53-1.1-2.27-2.95-3.18-8.19-6.54-11.31-9.68-3.64-3.67-7.79-8.75-11.23-12.76-5.89-6.88-17.12-24.67-22.53-29.19-1.33-1.12-3.17-1.01-3.91-1.71ZM896.78,164.9l-24.05,1.82c-1.83,1.25.69,14.16.38,16.96,2.68,1.32,18.59.24,19.93-1.17,1.19-1.25,4.38-16.97,3.75-17.61ZM898.37,183.54c.46.73,15.01,2.11,17.01,2.17,1.21.04,1.57.24,2.39-.97l-15.38-19.84c-1.44-.59-1.47,1.96-1.64,2.84-.38,2-2.81,15.12-2.39,15.8ZM594.31,167.26c-4.61.8,1.86,10.09,3.22,10.76,5.23,2.62,3.89-6.37,3.44-9.43l-6.65-1.33ZM613.17,168.75l-7.06.6.56,9.66,6.61.88c-.54-3.9,1.88-7.49-.11-11.13ZM289.27,170.14c-2.91-2.83.25,7.3.6,8.02.8,1.65,1.88,2.79,3.91,2.46l-4.51-10.48ZM531.53,232.33v-52.82c-1.1-1.53-3.14-1.21-4.9-1.17-9.31.22-19.93,1.99-29.23,3.03-2.07.23-9.75-.94-9.96,1.87,6.71,8.89,13.17,18.18,20.46,26.62,4.99,5.78,14.08,16.18,19.87,20.61,1.12.86,2.21,2.01,3.76,1.86ZM600.54,192.62l-.33-9.04c-.96-1.37-5.43-.47-7.18-.71v9.75s7.51,0,7.51,0ZM613.18,194.02c.69-5.93,1.77-12.74-6.7-10.06-1.93,6.4-1.47,11.82,6.7,10.06ZM278.78,185.88h-20.25v1.49c2.02.82,5.2-.75,6.38-.75h13.88v-.75ZM554.03,207.61v-17.61c-3.59-2.02-10.67-3.03-14.25-.75v18.36c4.9-.61,9.52,1.87,14.25,0ZM146.03,248.81l105.76-5.6c3.55-2.07,2.05-18.13,2.21-22.52.07-1.77.78-3.41.81-5.18.06-3.31.41-22.35-.39-23.65-.32-.52-4.66-3.06-5.65-2.7-27.03,17.81-55.1,34.11-83.95,48.83-4.49,2.29-15.14,6.02-18.32,8.53-.87.68-.39,1.42-.46,2.3ZM894.53,188.87h-15c-.19,1.29.26,2.18.86,3.26,3.58,6.48,9.57,13.43,14.13,19.21-.79-3.19,1.35-21.62,0-22.48ZM353.03,193.38l-61.53-3.41-.37,46.89,2.64.34c17.67-13.11,37.88-24.93,54.7-39.02,1.65-1.38,3.38-3,4.56-4.8ZM575.03,190.37l-12.75-.75c.57,2.75-.6,5.37-.75,7.87-.07,1.12.7,2.35.69,3.67-.03,2.32-1.95,5.62.57,7.98,2.45.01,4.91-.1,7.37-.03.95.03,4.88,1.55,4.88-.38v-18.36ZM286.28,191.12c0-1.29-11.78.65-13.13.74-2.41.17-13.87-.98-13.87,1.88v44.58c5.59-.23,11.28.32,16.87,0,2.91-.17,7.9-.56,10.13-1.87v-45.33ZM917.03,217.35v-24.35c-4.28-2.18-10.58-.98-15.43-2.56l-2.2,1.44.37,24.72,17.25.75ZM1222.2,192.71l-2.12-.06-8.9,27.51.17,2.48,27.43,2.94-16.58-32.87ZM769.28,245.81l81.74-46.07c-1.08-1.7-1.71-.83-2.99-.76-10.33.52-21.72,2.72-32.06,3.95-15.8,14.01-31.45,28.33-46.69,42.89ZM584.03,200.11v37.09c0,.26-.94.79-.43,1.85,1.24,2.62,11.97,1.34,15.09,1.49,11.55.56,23.67,2.51,35.23,1.53,1.12-.09,2.16.59,1.87-1.12-8.83-4.8-17.26-10.63-25.11-16.89-5.24-4.18-12.1-9.98-16.93-14.56-.86-.81-8.46-10.82-9.72-9.4ZM1211.78,202.37l-46.74,3.87c-.87.3-1.21.73-1.22,1.67-.03,1.85,2.13,16.06,2.93,16.6l34.54-2.28,10.49-19.85ZM961.05,276.02l-96.25-70.46-75.26,42.89,74.58-40.87,95.67,70.11v3.34s2.25,0,2.25,0l-.98-5.01ZM539.78,213.22v17.23c3.37,1.94,10.16,3.06,13.5.75v-17.23c-3.07-2.59-8.07-.01-11.81-1.73l-1.69.98ZM948.53,275.78l-86.62-62.67-94.88,54.82,181.49,7.85ZM575.03,214.35c0-.67-12.14-1.52-13.17-.05.03,3.73-2.19,17.97,2.3,18.78,1.82-.75,10.88,1.56,10.88-.38v-18.36ZM1205.78,265.3l.05-34.88-34.54,1.92,7.11,9.75c4.45,4,8.27,8.79,12.74,12.75,1.37,1.21,13.76,11.44,14.64,10.47ZM1217.03,247.32v-10.86c-.94-1.7-6.26-1.7-6.66.06l1,10.09,5.65.72ZM1227.53,236.08h-5.25v10.86c1.22,1.69,3.43,1.07,5.25,1.12v-11.99ZM444.49,247.13l-322.53,11.93.15,4.03,322.53-11.93-.15-4.03ZM448.32,247.16l-.17,4.04,204.44,8.34.17-4.04-204.44-8.34ZM1211.51,251.92c-2.26.75-.97,7.78-1.13,9.91l5.47,1.88c2.12-.5.96-8.59,1.08-10.67-.53-1.61-4-1.59-5.42-1.12ZM1222.28,252.56v11.24l5.21-.04c.32-1.76,1.06-10.39-.07-11.09l-5.14-.1ZM125.03,266.79l52.16-.71c68.19-2.44,136.52-4.28,204.75-6.74,19.31-.7,40.23-.71,59.25-2.25,1.34-.11,2.42.22,3.33-1.16-3.26-3.87-9.57-1.19-13.83-1.09-61.93,1.39-124.08,4.6-186,6.74-36.51,1.26-73.25,1.15-109.54,3.71-3.12.22-8.23-1.17-10.12,1.5ZM448.3,253.79l-.15,3.71,200.29,7.95.15-3.71-200.29-7.95ZM1235.78,272.79l32.25,2.64,2.99-.76c-6.61-4.07-13.8-7.02-20.47-11.01-2.79-1.67-10.42-7.96-12.46-8.54-.98-.28-2.3.02-2.3.82v16.86ZM773.78,258.56c-5.19,1.23-10.68,5.04-15,8.23,3.99-1.24,9.05-3.56,12.54-5.78.6-.38,2.16-1.73,2.46-2.44ZM446.03,466.11v-202.68c0-.21-.77-1.75-1.26-1.9-6.45.19-12.94-.16-19.39,0-28.44.67-57.06,2.82-85.44,3.81-65.24,2.27-130.73,2.57-195.75,5.99-5.64.3-14-2.64-13.97,4.84.11,32.85,1.21,65.95.85,98.94-.14,13.11-2.17,27.32-.82,40.47.08.81.02,1.71.74,2.27l83.7-43.85c2.13-1.72.34-4.07.31-6.38s-.39-15.23.89-16.04c12.32-.41,24.6-.15,36.82,1.26l50.94-28.59,49.73-3.5c2.02.35,2.95,2.66,4.01,4.27,21.93,33.53,40.02,71.25,61.79,105.36,6.33,9.92,15.29,24.8,23.09,33.13.55.59,3.09,3.4,3.77,2.6ZM455.78,479.97v207.18l51.03-7.24c.84-6.8-1.24-16.7-.02-23.09.38-2,2.45-2.65,3.17-4.33l.56-53.38c-.74-3.96-6.45.42-10-1.82-2.5-6.04.22-14.36-.15-21.07l9.43-1.82c1.17-1.52,1.35-3.41,1.5-5.25,1.73-21.15-1.92-43.89-.8-65.2-.51-2.69-2.99-2.62-3.72-3.97-1.45-2.7-3.14-17.21-.67-18.81,2-.36,4.84.79,5.15-1.97l.76-52.45c-.8-4.22-7.4-.11-9.99-1.82-1.7-1.12-1.83-18.72-.9-20.3,1.31-2.21,6.67-1.22,8.91-1.59l1.23-1.77c-.62-16.82.83-34.2,0-50.94-.38-7.57-1.8-11.67-3.4-18.33-.89-3.68-2.19-8.46-1.51-12.07.8-1.15,18.09-.8,21.08-.74,17.27.36,35.24-.17,52.5.75,2.28.12,6.97.42,8.97.78,4.91.86-1.55,11.72-2.4,14.09-2.94,8.18-.8,40.44-.94,51.5-.04,2.85-.04,5.4-.03,8.21,0,2.01-2.29,6.01,1.28,7,2.07.58,6.45-1.95,7.59,1.36.46,1.35.29,17.34-.24,18.24-1.29,2.19-7.08,1.36-9.39,1.49l.05,49.79c1.06,1.38,1.79,7.17,2.37,7.75,1.33,1.33,4.16-.81,4.4,4.28.06,1.18-1.36,9.11-1.73,10.34-.34,1.13-1.79,1.86-2.28,2.97-.81,1.84-1.24,20.96-1.34,24.88-.31,12.23.16,24.53.06,36.78-.02,2.2-1.64,4.55.47,6.4l7.41,1.39c1.26,6.5.58,12.88.24,19.43l-9.16,1.72c-2.24.7-.51,3.55-.46,5.47.39,15.12-1.87,35.27-.1,49.51.19,1.56,1.54,1.14,2.15,2.35,2.84,5.64-2.22,15.28,1.28,21.25l49.16-7.27c.07-65.4-.18-130.82-.07-196.22.08-46.9.47-93.99.82-140.79.13-17.63.1-35.29-.36-52.91l-186.05-8.2-1.55.7c-.46,11.8-.5,23.8-.36,35.67.69,56.34,1.14,112.9.75,169.34-.17,4.87,5.84,2.12,7.16,4.83.52,1.07.69,5.12.38,6.22-.23.84-2.07,1.06-2.26,1.65ZM653.1,261.08l-.15,4.21,95.28,3.29.15-4.21-95.28-3.29ZM746.78,273.54l-1.25-2.11c-22.2-1.08-44.39-1.78-66.61-2.38-10.8-.29-22.13-1.59-33.04-.78-1.34.1-2.43-.21-3.33,1.16.9,1.36,1.98,1.06,3.33,1.16,19.17,1.35,38.61.85,57.82,1.43,13.43.41,27.13,1.89,40.62,2.02.9,0,1.61-.4,2.47-.49ZM755.82,271.93l-.09,2.27,179.23,7.14.09-2.27-179.23-7.14ZM1079.78,278.79l-111.74-4.49.33,2.28c1.03,1.4,15.81.54,18.82.68,23.28,1.03,46.45,2.16,69.75,3,6.07.22,13.49,1.53,19.47,1.6.98.01,2.42.06,3.04-.77l.33-2.29ZM641.78,652.68c1.59.05,3.18.04,4.78-.1,27.86-2.46,61.38-8.06,89.22-12.77,1.95-.33,8.04-.81,8.65-2.6l.07-70.3c1.05-78.3.87-156.97,1.57-235.27.16-17.61.09-35.36-.36-52.9l-.9-.6c-24.68-.89-49.44-1.59-74.18-2.32-8.46-.25-17.73-1.82-26.26-.82-1.09.13-1.93.09-2.59,1.16v83.17c1.81,3.11,8.08.87,9.39,2.61,1.99,7.46,1.28,15.56.25,23.14-2.59,1.62-9.02-.63-9.64,2.73v141.62c.79,4.23,6.78-.49,8.64,2.62.53.89.71,16.86.24,18.24-.85,2.53-5.6,1.85-7.64,2.11l-1.24,1.01v99.28ZM1129.13,278.26c-14.31.25-28.65,1.27-42.98,1.27l-1.85,1.13,1.85,1.13c21.28-.17,42.49-.94,63.79-.72,45.75.47,91.99,4.27,137.96,5.97,2.32.09,5.21,2.05,7.13-.39.24-1.15-.88-1.68-1.88-1.86-4.63-.82-12.14.28-17.28.03-48.87-2.43-97.81-7.39-146.75-6.55ZM914.78,410.29v23.6c3.49-.81,5.67-2.58,9.45-.82,4.65,2.17-.05,4.51-1.1,6.53-1.36,2.6-1.11,12.94-.85,16.4.15,1.94,1.74,4.47,1.39,5.84-.49,1.91-3.45,4.09-5.69,2.98-4.69-2.31,1.53-7.58.55-8.44-4.02.76-6.7-3.57-9.31.81-2.34,3.92-1.23,7.62-2.27,11.21-.45,1.56-3.97,5.2-3.97,5.57,0,.56,2.39,2.27.99,4.19-1.79,2.45-5.18-1.09-6.65-.73-.66.17-3.3,2.8-3.46,3.45-.37,1.54,1.39,2.35,1.3,3.47-.07.92-1.35,2.09-1.43,3.88-.16,3.5.09,8.66.03,12.7-.36,21.47.31,42.98.05,64.45.49,2.58,8.58,7.45,11.01,9.25,6.16-.87,13.21-2.43,19.36-2.85,2.95-.2,7.91-.68,10.12,1.11v17.23c0,.31-1.07,1.26-.67,2.09.65,2.74,14.31,7.75,17.16,9.53l1.93-314.74-202.18-8.2-1.5,357.04.7,1.54c.83.47,1.73.39,2.64.35,7.91-.32,16.35-2.59,24.1-3.71,2.9-.42,12.33-.1,13.43-2.32.66-1.33.07-3.48,1.43-4.56,1.48-1.17,4.37-.33,5.97-1.35,1.05-.67.88-2.73,1.65-3.78,1.69-2.33,5.25-.99,6.24-1.63.65-.42.41-3.73,1.6-4.77,1.4-1.23,4.84-.97,6.64-1.23,1.28-4.13-.03-6.21,5.4-6.23l.61-.89.16-60.62c-.23-1.84-3.01-1.7-3.65-3.88-.43-1.46-.37-13.7.18-14.49.68-.96,3.52-.5,3.42-2.57.16-11.75-.24-23.52-.04-35.26.08-4.8,2.18-16.34.23-20.4-.72-1.5-2.38-1.46-3.21-3.54-1.16-2.89-.62-6.64-.76-9.69.24-1.69,7.54,2.34,8.26-4.54.99-9.4-.71-19.2-.82-28.49-.05-3.82,2.02-14.05.12-16.56-.52-.69-2.11-.74-2.32-1.57-.41-1.67-.14-15.06.72-15.63,1.6-1.07,5.68,1.01,5.34-2.91-1.38-19.23,2.47-41.09-1.75-59.77-.38-1.67-2.1-3.21-.97-5.13l59.2-.05c2.73-.89.63-8.55.46-10.8-.13-1.7,1.17-3.43.07-5.04-.86-1.27-3.36-1-2.19-4.54.94-2.85,10.82-3.21,10.21,1.26-.25,1.81-2.3,2.73-2.66,4.02-.52,1.81-1.12,10.59-.73,12.42.44,2.08,2.48,3.46,2.1,6.12-.23,1.64-2.96,3.33-3.82,5.99-2.51,7.75-2.4,43.27-1.5,52.54.12,1.24-.06,2.53,1.09,3.4l4.25,1.15c.73,3.07,1.8,15.63-.78,17.14-2.14,1.25-7.23-1.23-6.64,2.81.07.48,3.57,8.58,4.01,8.78l1.85-.5c.02-4.91,2.97-4.02,6.65-3.33.66-2.44,3.65-8.07,5.77-3.64,1.1,2.3-1.91,4.87,1.48,6.73l2.35-3.65c1.33-.24,3.3,2.55,4.42.68l.42-4.44c1.2-.94,4.03-.24,4.43,1.05ZM1079.78,284.79l-111.74-4.5c-.6,1.96,1.97,2.13,3.36,2.25,9.98.86,21.4.28,31.54.72,19.95.85,40,2.51,59.93,3.06,4.5.13,11.58.5,15.8-.03,1.09-.14,2.33-.57,1.11-1.5ZM1085.03,283.99v2.29h68.25v-2.29h-68.25ZM1290.53,290.78l-135-5.62c5.44,2.19,11.83.82,17.65,1.09,36.92,1.7,73.99,4.49,110.94,6.05,1.95.08,5.52.64,6.41-1.52ZM957.53,286.28v14.99c3.37.11,8.1-1.22,8.31,3.36-.2,1.99-2.65,1.59-3.07,3.75-.92,4.8,1.16,13.45-.14,17.84-1.09,3.65-4.87,1.07-5.09,1.27-.15.14-.69,3.45-.75,4.13-1.7,20.83.27,45.37.03,66.71-.13,10.79-2.19,22.9-.82,33.72.63,4.97,3.14,2.08,5.24,2.94,1.14.47,4.83,3.79,4.5,5.19-8.59,3.67-2.59,15.08-3.8,22.46-.81,2.35-5.27-.5-5.93,4.56l-.37,136.06,1.46.68,118.28-16.13c1.32-3.62.31-7.45.71-11.14,3.99-37.56.02-76.72,1.49-114.72-2.37-8.34.74-19.76-.8-27.68-.62-3.19-5.48-3.99,1.15-7.87l.79-134.93-1.55-.7-119.63-4.49ZM1151.03,290.03l-67.92,1.44c-.79,37.04-.09,74.25-.29,111.35-.26,49.14-.89,98.97-1.57,148.29-.1,7.45-.26,14.99.79,22.34l65.54,9.36,1.58-1.33c1.23-64.97.69-130.15,1.1-195.21.18-28.52,1.06-57.56,1.56-86.1.06-3.57-.48-6.66-.79-10.15ZM1240.31,514.09l.3,56.22c.79,1.12,4.62.78,6.04.69,5.75-.37,13.52-1.53,19.41-2.33,2.63-.35,14.76-1.6,15.37-3.38l1.5-268.04-125.37-7.11-1.65,1.39c-.89,32.75-.11,65.73-.34,98.56-.01,2.09-.64,3.89-.82,5.93l-.72,186.23c1.06,1.06,25.9-3.15,29.72-3.65,3.17-.42,15.85-.36,16.68-2.82l.86-54.6c-.21-2.68-3.91-1.47-4.76-3.53-.75-1.83-1.03-11.14.24-12.2l4.56-1.57c-.02-10.97-.11-21.95-.08-32.92.01-3.31.99-7.55.79-11.15-.49-8.53-6.07-17.37.73-24.05-.83-4.48,1.21-34.94-.14-36.15-1.62-1.46-3.91.32-4.39-3.5s.39-8.49.08-12.37l4.49-1.28-.03-47.84-2.17-10.77c.81-1.28,19-.95,22.07-.87,1.77.05,3.41.73,5.19.81,2.83.13,17.82-.75,18.37,1.89-1.01,4.74-4.06,8.55-4.49,13.41-1.15,12.84.95,27.35,0,40.38,7.1,1.25,4.53,10.81,3.81,15.88-2.42,2.32-3.96-1.23-4.56,5.94-.47,5.65-.7,30.28.95,34.32.39.96,1.64,1.63,1.92,2.57,1.29,4.38-.98,8.51-2.11,12.56l-.63,46.75c6.41.27,5.81,7.74,5.19,12.5-.44,3.41-2.96,4.06-6.01,4.11ZM125.68,316.36l-90.64-3.1,26.25,49.07c5.22,1.3,6.89,11.4,9.31,13.17,3.59,2.63,7.74-2.41,10.92-3.44,8.2-2.66,17.34-1.88,19.2,7.85,1.7,8.87-10.01,13.6-9.46,19.11.19,1.92,2.65,2.43,3.03,4.55.4,2.23-.74,3.99-.69,5.89.03,1.26,2.25,11.08,2.76,12.23.68,1.5,8.24,9.02,9.59,9.22,1.72.25,14.35-5.99,16.61-7.36,5.19-3.14,2.85-7.92,3.19-13.3,1.71-27.22,2.4-61.94.82-89.17-.1-1.64-.09-3.25-.89-4.73ZM36.33,326.94l17.16,35.68,2.16,1.58c2.77-.58-1.37-5.07-1.99-6.24-6.13-11.4-12.53-26.88-19.8-37.17-.41-.58-3.02-3.35-3.32-3.04l-1.5,8.99c.36.39,4.75-2.91,7.3.21ZM557.41,323.74h-43.88c-.17,1.32,1.69.71,2.62.75,13.99.58,28.3.47,42,1.51,1.13-.44-.25-2.12-.74-2.26ZM348.53,326c-14.44-.02-28.9,1.53-43.29,2.83-34.15,19.05-68.07,38.61-102.46,57.24-53.39,28.92-106.85,59.49-164.97,77.95l-1.28,2.08,203.23,21.38c1.87-2.1,4.22-3.86,6.02-6.02,7.19-8.63,13.55-19.42,19.98-28.75,26.98-39.19,54.11-80.34,79.63-120.5.55-.87,3.66-5.76,3.14-6.22ZM354.52,328.99l-106.48,158.09,193.49-16.48c1.1-.93-4.57-6.28-5.23-7.14-19.54-25.35-36.86-56.3-53.15-84.02-9.79-16.65-19.04-33.69-28.63-50.45ZM537.53,329.74h-21.38c-.18,0-.6-.75-1.13-.4l-.75,1.15h23.25v-.75ZM49.28,363.45l-14.35-29.49c-3.17-3.98-9.63-1.4-6.64.64,6.49.42,7.49,8.01,10.23,13.01,1.94,3.53,4.31,6.77,6.17,10.32,1.23,2.36.59,6.01,4.59,5.52ZM841.13,334.4c-.85-1.11-5.73-1.04-5.03.88.46,1.27,5.02,8.86,6.67,7.2l-1.65-8.07ZM850.17,334.35c-1.72-.78-3.97-1.67-5.11.34.93,2.68,2.06,11.63,5.88,7.29l-.77-7.63ZM859.18,334.35c-1.03-.92-4.89-.97-5.2.38.17,11.2,6.69,11.2,5.2-.38ZM868.17,334.34c-1.26-.59-3.84-1.57-4.81-.15l-.33,9.03c4.68.93,5.51-5.3,5.14-8.89ZM532.29,346.22c.6-.62-1.93-9.88-2.96-10.91-1.72-1.74-8.01-2.11-7.21,1.19.19.8,3.48,8.6,3.79,8.98,1.18,1.44,4.57.53,6.38.74ZM533.78,334.23c0,3.55,2.56,15.62,8.3,11.66,1.28-.89-.04-9.83-1.15-10.93-1.49-1.46-5.08-.48-7.15-.73ZM552.42,334.34c-1.8-.06-6.71-.87-7.33,1.13,1.07,4.72.21,13.87,7.11,10.06,0-1.97,1.55-10.34.21-11.18ZM564.53,334.23l-7.17.7-.97,10.42c7.86,3.96,7.28-5.97,8.14-11.13ZM566.78,346.23c1.53-.1,3.8.54,4.88-.75.31-.37,3.94-8.3,4.02-8.78.15-.91.24-1.53-.62-2.12-8.66-2.95-7.86,5.6-8.28,11.65ZM831.64,343.1c6.24,3.27,2.58-6.84-.1-8.87l.1,8.87ZM878.03,334.24c-9.62-3.34-8.62,14.66-3.09,7.02.32-.44,3.37-6.77,3.09-7.02ZM1236.53,334.99c-5.61-.17-11.28.21-16.9.03-1.72-.06-8.89-2.1-9.34.37-.16.88,2.19,5.8,3.52,6.2,1.71.52,14.88.48,17.14.18,3.31-.44,4.45-4.04,5.58-6.78ZM514.29,334.99c.65,4.16,1.66,6.96,1.06,11.28,10.36,3.17,2.78-5.45,2.33-10.55l-3.39-.73ZM582.53,334.99c-1.98-2.02-6.11,7.72-6.42,8.96-.24.92-.62,1.19.4,1.92,7.22,1.41,4.39-.99,4.56-4.47.1-1.98,1.99-4.11,1.46-6.42ZM1238.03,375.82c1.24-8.79,0-23.45,0-32.97,0-.68,1.97-2.47-.74-3.37-2.45,13.32-1.24,26.97-1.5,40.46,1.15-.28,2.12-3.25,2.24-4.12ZM836.03,346.97c-1.46.03-3.82-.5-4.39,1.23-.06,1.65-.87,6.31,1.1,6.95l2.6-.26.69-7.92ZM876.64,355.11c.75.47,4.19.29,4.82-.59,1.13-4.99.79-9.69-5.34-6.84-.76,1.08-.34,6.89.53,7.43ZM1208.78,347.72c-1.76-.1-1.33-.25-1.5,1.11-.32,2.5.13,5.59,0,8.25-.28,5.69-.99,11.46-.77,17.27.1,2.56,1.26,5.12.78,7.83,2.85.52.9-2.16,1-3.53.05-.66.5-1.17.5-1.34v-29.6ZM581.04,360.46c-.34-6.86,2.62-14.15-7.4-10.39l.22,9.68,7.18.71ZM522.53,349.9h-6.75v53.34h6.75v-53.34ZM848.03,369.08v-17.98c-1.78-2.05-5.03-.85-7.5-1.13l-.42,19.53.9.59c1.61.14,6.49.7,7.02-1.02ZM568.25,350.72h-2.96v83.92h2.96v-83.92ZM865.28,350.72c-2.68.34-6.27-1.01-8.25,1.12v17.23c.95,1.42,2.59,1.17,4.12,1.17.97,0,1.93.05,2.88-.17l1.24-1v-18.36ZM1216.28,364.2v-12.36l-1.2-1.07-2.55.7v12.74h3.75ZM1222.28,351.84v12.36h3.75c-.92-4.13,3.79-17.18-3.75-12.36ZM539.03,376.19c.02-6.4,1.54-13.51.79-19.89-.13-1.09-.09-1.93-1.16-2.58h-11.62c-1.67,3.38-.04,6.17.03,9.33.09,4.13-1.01,9.73,1.09,13.14h10.88ZM561.53,354.46c0-.65-11.59-1.75-12.75.37v21.35h11.62l1.12-1.12v-20.61ZM243.53,355.96h-24l.7,7.17,11.71.98c.63-.02,10.52-5.37,11.12-5.84.87-.69.38-1.42.46-2.3ZM875.78,388.18c2.22.77,4.47,1.12,5.88-1.25-.4-8.1.95-17.46.17-25.4-.61-6.18-6.04-4.08-6.04-2.95v29.6ZM836.03,387.81c1.36-8.2-1.01-19.87,0-28.47-.61-1.71-4.26-1-4.53.13.04,7.46.03,14.92.06,22.38,0,1.33-.68,2.63-.65,3.73.12,4.63,4.53,5.74,5.12,2.23ZM581.04,364.2l-7.93.71-.22,8.18c1.6.84,6.79,1.62,7.82.15l.33-9.04ZM647.78,364.95l-4.76.12-1.24,1.01v14.99c1.45,1.75,4.66,1.68,6,0v-16.11ZM854.03,373.95h-13.5v2.24c4.87.1,11.98-1.52,12.37,5.26l1.13-7.5ZM1222.28,389.68c1.46-.03,3.82.51,4.4-1.23l-.6-14.18-3.8-.33v15.73ZM1217.03,389.31v-13.49c0-1.57-5.03-1.83-5.19,1.45,1.64,2.82-.28,10.56,1.02,12.45.88,1.28,3.77.89,4.16-.41ZM581.04,377.69l-7.93.71.38,10.21,7.22-.37.33-10.54ZM562.28,382.18c.23-1.44-.59-2.01-1.88-2.24-3.52-.64-8.89.28-12.77.02-1.78-.12-2.94-1.31-3.86-1.39s-1.99,1.28-3.58,1.41c-2.64.2-13.38-1.24-13.72,1.81l1.05,1.93c3.52.89,10.49-1.5,13.16-.01,1.58.88,1.93,4.3,2.48,4.48,1.7.57,1.45-4.94,3.89-5.1l15.23-.9ZM865.28,380.69c-2.98.11-5.35-1.35-8.25,0v17.98h8.25v-17.98ZM839.78,381.81v16.48c.95,1.42,2.59,1.17,4.12,1.17.97,0,1.93.05,2.88-.17l1.24-1v-16.48c-.95-1.42-2.59-1.17-4.12-1.17-.97,0-1.93-.05-2.88.17l-1.24,1ZM1242.54,384.43h-6.4s-.35,8.99-.35,8.99l6.75-.74v-8.25ZM1206.37,386.08c-.8.06-3.64.78-4.01,1.31l.37,7.96,4.96.88c1.66-.29,1.55-9.12.38-9.98-.54-.46-1.1-.21-1.69-.16ZM561.53,387.43c0-.86-11.22-.49-12.75,0v20.61c1.41,1.69,9.92,1.55,11.25.75.38-.48,1.5-1.89,1.5-2.25v-19.11ZM539.03,387.43h-10.88c-2.12,4.08-1,10.52-1.09,15.39-.04,2.16-1.98,5.4.72,6.72,1.21.59,8.69.69,10,.25,3.78-1.27,1.53-18.55,1.25-22.36ZM887.04,391.92l-11.28,1.12.36,6.43,10.92,1.46v-9ZM581.04,392.67h-8.26s.11,8.9.11,8.9c2.08.07,6.12.77,7.47-.96l.68-7.94ZM835.29,393.42l-9.43.71.38,8.71,8.72-.37.33-9.04ZM1216.94,395.03h-4.31c.11,2.09-1.03,8.87,1.11,9.57l2.6-.26.6-9.31ZM1223.48,394.24c-2.12.7-1.03,7.15-1.09,9.19l.58.92c5.61,1.96,3.58-5.38,3.69-8.93l-3.19-1.17ZM1235.78,396.42v30.35c0,1.08-2.44,5.07.75,5.25,2.11-1.49-.09-9.4-.07-12,.07-6.93.67-14.28.78-21.09.02-1.2-.1-2.2-1.46-2.52ZM1208.78,433.89v-33.72c-.49-.06-1.5.99-1.5,1.12v32.59h1.5ZM847.28,413.66l.38-8.98-1.59-1.33-5.59.9c-1.06.71-1.06,9.03-.35,10.18,1.02,1.67,5.38-1.87,7.15-.77ZM864.54,403.16l-7.18.7c-.5.73-1.35,11.15.05,12.78.68-1.64.28-3.68,2.39-4.42l3.98,1.42c-1.24-4.17,1.01-6.52.76-10.49ZM876.24,403.98c-2.23.73-.21,9.64.66,9.65,3.8-1.28,3.11-6.39,1.94-9.4-.66-.47-1.85-.5-2.6-.25ZM590.03,418.15v-12.36c0-.41-1.27-1.2-1.89-1.16l-15.4,1.11c-1.05.73-1.44,10.97.42,12.41h16.88ZM506.03,406.91c.24.74-.75,1.63-.75,1.87v11.24c1.71,2.04,15.42.38,16.52-.73s1.14-9.59.36-10.88c-.48-.38-1.89-1.5-2.25-1.5h-13.88ZM835.17,407.78c-2.13-1.21-4.38-.73-6.33.61l.45,6.01,5.66-.69.22-5.93ZM539.03,432.76c.01-5.99,0-11.99,0-17.98,0-1.79-10.28-1.42-11.9-.27.14,4.9-.89,9.64-.89,14.54,0,1.25.05,6.59,1.27,6.97l11.45-.69c.79-1,.06-1.97.06-2.57ZM548.78,435.39h10.88c1.07-.66,1.04-1.49,1.16-2.58.24-2.06.16-17.69-.37-18.44-3.06-1.02-8.91-1.56-11.67.42v20.61ZM580.18,422.76c-2.38-1.17-4.92-1.16-7.29,0-.39,17.24-1.2,34.33-.11,51.6h6c.48,2.77-1.71,3.49-4.11,3.76-9.02,1.01-18.79.24-27.8.7-6.81.35-13.74,1.71-20.59,1.54l.74,1.13,54.02-1.89-.86-56.84ZM523.32,424.11h-7.54v57.73h7.54v-57.73ZM848.78,430.15c-2.96-.67-4.3,1.11-6.6,2.38-1.02,9,8.75-.28,6.6-2.38ZM1318.28,438.01v37.09l30.21,1.67c6.32,1.39,19.64,12.63,24.91,12.63,5.55,0,13.64-1.07,19.5-1.57,47.49-4.02,94.68-10.4,141.86-17.12,2.67-.38,14-.5,14.52-2.74.71-3.08-9.39-2.42-10.86-2.62-6.5-.88-12.98-2.23-19.52-2.98-4.02-.46-7.48,1.22-10.91-1.84-.94-.84-1.39-2.42-2.26-2.99-5.88-3.86-23.71,2.35-26.89-2.35-.85-1.26-.97-5.34-2.05-5.59-13.1-1.07-34.22,6.3-42.03-7.49-7.02,1.84-25.28,6.67-31.17,2.3-1.04-.77-1.12-2.49-2.58-2.92-2.42-.71-5.85,1.79-9.46-.8-1.2-.87-1.19-3.03-1.97-4.02-3.13-3.94-18.09,4.23-22.53-.17-.81-.81-.95-2.39-1.83-3.41-2.61-2.99-4.7-.41-7.61,0-3.33.46-5.45-.55-8.76,1.54-.68.43-.85,1.59-1.81,2.1-3.22,1.72-20.49-.55-26.17.12-1.09.13-1.93.09-2.59,1.16ZM1313.78,473.23v-35.97l-1.12-1.12h-24.75c-1.07.66-1.04,1.49-1.16,2.58-1.01,8.63.3,20.2.07,29.29-.06,2.39-1.71,15.12-.78,16.08,4.63,1.2,6.68-8.51,7.98-8.93,6.29,1.61,12.11-.65,18.5-.03.46-.11,1.21-1.53,1.27-1.9ZM557.03,447.38c-.18-2.35.64-5.09-.72-7.16-1.25-1.92-3.69,1.41-6.04.42-.47,5.55,1.01,7.59,6.75,6.74ZM917.77,448.12c1.14-1.04,1.79-9.56-2.24-8.98-.33,1-.16,11.18,2.24,8.98ZM542.03,440.64h-3.75c-.11,2.8-.58,5.79,3,5.23-1.26-2.13-.36-3.34.75-5.23ZM532.28,444.38l-5.11,3.51-.14,9.97c1.1,1.26,4.65-5.04,4.9-5.97.65-2.49.28-5,.35-7.51ZM550.29,457.86c1.59-.68,6.05-7.16,5.23-8.24l-5.15,2.35-.09,5.9ZM566.54,452.1c-.58-.68-3.72-2.29-4.26-1.72-.57,2.94,1.56,4.21,3.37,5.98,1.69-1.28,2.43-2.46.88-4.26ZM1227.53,459.36c-.76-1.36,1.69-8.92-.37-8.97-3.74-.09-1.72,11.41.37,8.97ZM545.03,458.61c1.2-5.49-2.67-5.79-6.74-7.49-1.06,1.09,4.21,8.64,6.74,7.49ZM1217.03,451.12l-3.01.39c.92,3.06.35,6.9,2.64,9.34,1.98.09-.38-8.52.37-9.73ZM906.53,453.37c-1.63-.49-2.91-.74-4.11.76l-1.13,6.73c.98,1.15,5.69-6.9,5.24-7.48ZM889.28,454.12c-3.03-1.15-8.73,4.76-8.25,7.1.95,4.58,9.16-4.25,8.25-7.1ZM861.54,462.36c4.39,1.18,6.37-1.87,9.22-3.15,2.54-1.14,5.52-.91,7.26-3.22-.9-1.37-1.99-1.05-3.33-1.16-6.02-.47-13.05-.03-13.16,7.52ZM550.28,466.1l6.43-.7.32-9.79c-1.3,1.6-8.2,8.98-6.74,10.49ZM842.78,455.62c-3.76.89-21.48.52-22.33,4.95-1.11,5.81,5.22,5.06,9.19,4.78,6.65-.47,12.96-1.96,13.13-9.73ZM858.53,455.62h-4.5s0,5.99,0,5.99c3.43.47,4.39-3.26,4.49-5.99ZM537.54,458.62l.34,8.28c14.24,3.06.61-9.36-.34-8.28ZM847.74,459.44c-1.37.42-2.8,3.86-.83,4.41,2.99.84,4.62-5.57.83-4.41ZM567.42,460.97l-5.14-.86v5.99s5.12-1.61,5.12-1.61l.02-3.52ZM531.17,460.87c-10.99,9.31,4.52,10.01,1.74,1.24-.23-.73-.91-1.42-1.74-1.24ZM1207.28,466.11l-1.5,1.11c.66,10.77-1.44,21.51-.78,32.27.08,1.38-.09,6.11,2.29,5.59v-38.96ZM1220.78,467.23v13.49c0,1.65,4.1,1,5.23.33-2.03-3.73.95-10.82-.35-13.44-.92-1.86-4.35-2.1-4.88-.37ZM883.28,467.61c-3.42-.03-1.82,3.96-2.41,6.2-5.2,20.04-4,50.45-4.37,72.06-.17,9.96.72,20.12-.63,29.94.52,2.18,8.98,1.96,8.2-2.16l-.79-106.05ZM891.53,467.61c-4.59-1.63-3.33,9.65-1.88,9.72,1.27-.87,4.21-2.41,4.18-4.11-.02-1.53-3.79-2.03-2.3-5.61ZM1215.53,467.61c-1.7-.2-4.5-.35-4.5,1.87v12.36l4.5-1.12v-13.11ZM826.28,469.1c-4.47.78-.91,8.65-2.14,12.23l2.14,1.25v-13.49ZM20.97,468.17l-.33,3.08,215.39,23.33.33-3.08-215.39-23.33ZM854.72,482.52l-1.02-11.96c-9.54-3.59-4.3,6.79-4.05,11.9,1.68,1.06,3.33.85,5.06.07ZM863.03,469.86h-6c.87,2.2-1.6,11.17.38,11.98l5.62-11.98ZM831.52,478.09c-.61-3.23,4.2-3.92,4.5-4.88.8-2.58-2.57-3.08-4.4-2.52-.59.37-2.69,10.02-.1,7.4ZM550.29,474.34c2.67.84,4.89,1.57,6.73-1.12.05-1.41-7.3-2.3-6.73,1.12ZM450.34,472.98l-209.26,18.28.27,3.09,209.26-18.28-.27-3.09ZM871.28,482.6c6.9.9,5.74-12.14-.67-5.51l.67,5.51ZM844.15,476.75c-1.16-1.67-5.42,1.22-5.78,2.62-.83,3.19,4.43,6.88,7.39,4.69l-1.6-7.3ZM159.53,609.59v-55.45c0-1.57,3.54-1.93,4.84-1.89,7.27.19,23.89,3.06,31.34,4.71,1.32.29,2.64.59,3.57,1.68v46.46c0,.6,1.8,1.4,2.59,1.16,10.84-2.1,22.08-2.13,32.95-3.87,1.36-.22,4.41-.56,4.87-1.88l-.96-101.5-207.45-21.28v146.11c0,.27.76,1.21.88,1.75,1.29.32,2.67.19,3.98.11,5.06-.32,15.43-1.27,20.1-2.4,1.12-.27,2.02-.88,2.79-1.71v-83.17c1.58-1.82,4.77-1.19,7.03-1.02,6.52.48,19.29,2.1,25.4,3.84,1.06.3,2.3.63,2.69,1.8l.09,74.84,64.02-6.37c.45-.1,1.2-1.54,1.26-1.9ZM1235.78,498.33c.49.06,1.5-.99,1.5-1.12v-17.98c0-.13-1.01-1.18-1.5-1.12v20.23ZM1321.29,484.08c8.14,1.69,15.74,5.6,24.14,6.27,4.01.32,3.66-1.08.62-2.91-1.92-1.15-17.8-6-20.11-6.2-2.01-.18-4.69.35-4.65,2.84ZM1362.53,490.08c.34-1.55-.8-1.7-1.7-2.41-1.9-1.5-11.43-6.65-13.29-5.07-.38,1.63.91,1.66,1.71,2.4,3.58,3.33,8.25,5.75,13.28,5.08ZM836.78,483.34c-5.47-.87-5.91,5.99-6.06,10.12s.18,3.81-.61,8.32c-4.26,24.29,1.51,55.76-.86,80.88-.05,3.69,6.32,4.1,6.82,0,2.66-21.83-2.72-48.29.78-70.47-1.18-9.61.44-19.12-.07-28.85ZM1319.97,489.89l-1.7-4.3c-1.32-.98-3.13,7.02.53,8.09,4.15,1.21,9.43-1.21,13.72-.61l-12.56-3.18ZM1290.17,488.58c-2.43.46.12,2.64,2.28,2.95,3.2.46,11.86,1.07,14.99.83,1.34-.1,2.42.22,3.32-1.15.02-2.15-15.02-1.84-16.85-1.88-1.19-.03-2.83-.92-3.74-.75ZM1226.03,505.07v-13.86c0-1.7-4.1-.9-5.25-.37v13.86c0,1.7,4.1.9,5.25.37ZM585.52,490.68l-74.35,4.57.2,3.3,74.35-4.57-.2-3.3ZM866.03,503.2v-11.24c-1.71-1.93-5-1.06-7.39-1.02-1.64,6.93-2.98,18.65,7.39,12.26ZM840.53,505.82c2.47-.28,5.72.93,7.5-1.12v-11.99c-1.61-1.77-5.89-1.77-7.5,0v13.11ZM1211.03,492.71v12.74l3.75,1.13c.08-2.46,3.03-18.93-3.02-14.64l-.72.77ZM574.38,517.16l.23,9.69c.78,1.13,7.2,1.37,7.82-.53l.89-26.85c-.21-2.08-2.15-2.37-3.84-1.57-.66,5.08-2.06,12.56.02,17.3l-5.12,1.96ZM564.53,511.44c.42-3.2,0-7.82,0-11.24,0-2.05-5.18-1.58-6.43-.43l-1.08,14.29,6.29.04c.33-.09,1.17-2.3,1.22-2.67ZM568.28,498.33v14.61c0,1.44,4.31,1.49,5.31-.12.85-1.37,1.99-13.94,1.44-14.49h-6.75ZM554.04,499.82l-8.68.7,1.14,13.94c1.55.35,5.13,1.47,6.1-.14l1.44-14.5ZM890.03,499.82h-1.5v29.97h1.5v-29.97ZM541.28,515.18v-13.49c-.94-1.61-5.58-1.63-6.42-.42-.45.65-1.36,14.69.17,15.06l5.01-.15,1.24-1ZM530.03,501.32h-8.25c.65,5.72-1.44,21.79,8.25,14.61v-14.61ZM1235.78,511.07c1.94-.02,5.46.56,6.41-1.51.12-.25.36-5.28.33-5.6-.3-3.42-4.34-2.84-6.4-1.17l-.35,8.27ZM518.67,517.68l-.76-14.37c-.35-1.13-1.44-1.57-2.5-1.24-2.75.86.45,12.79-.27,15.24l1.08,1.2,2.44-.83ZM1206.49,507.36c-6.38-1.02-6.3,2.52-5.99,7.77l5.18,1.28c.76,1.23-1.17,4.29,1.6,3.64l-.79-12.69ZM1220.78,525.3c1.46-.03,3.82.51,4.4-1.23-.74-3.39,1.1-9.14.85-11.87-.3-3.42-5.25-3.06-5.25-1.51v14.61ZM1211.03,526.05l4.5-1.12v-12.74c0-1.49-4.5-1.49-4.5,0v13.86ZM1205.03,559.39c-.62,4.22,0,11.13,0,15.73,0,2.3,7.74-.18,9.38-.37,3.9-.43,7.46-.87,11.33-1.42,2.71-.38,8.12-.29,10.3-.95.81-.25,1.29-.82,1.2-1.69l-.72-57.39-1.52,2.59-1.09,52.11c-.83,1.67-12.54,3.36-15.1,3.64-1.35.15-9.09.93-9.55.79-2.8-.88-.42-7.97-.42-10.06,0-3.92-3.22-7.05-3.82-2.99ZM865.28,514.81c-2.47.28-5.71-.93-7.5,1.12v11.99c1.94,2.21,5.09.91,7.5.37v-13.49ZM840.53,516.31v13.49c2.31.69,4.86,1.43,6.81-.5l.36-12.29-7.17-.7ZM568.31,517.8h-3.08s.04,102.68.04,102.68h3.08s-.04-102.68-.04-102.68ZM561.53,519.31l-11.51.12-1.24,1.01v19.11l11.49-.72c.49-.15,1.26-1.7,1.26-1.9v-17.61ZM539.03,520.8l-11.67,1.45-.75,18.83c1.06,1.53,10.64.87,12.42-1.17v-19.11ZM517.03,521.67c-2.45.84-2.42,6.65-1.62,8.87.53,1.96,5.41,1.09,6.4.41,1.6-1.11,2.13-11.66-4.78-9.28ZM1225.28,535.79c2.01-11.77-8.37-5.62-4.92-.7l4.92.7ZM824.77,544.78l.7-13.76c-4.81-4.53-6.61,4.61-5.93,8.12.59,3.05,3.78,2.72,4.34,3.57.48.73-.48,2.3.89,2.07ZM580.08,530.74c-.92-.01-5.84.72-6.23,1.26l.38,8.71,7.97-.37c.41-2.38,1.08-7.57-.76-9.13-.39-.45-.82-.46-1.37-.47ZM1211.03,530.54c.1,2.06-1.01,7.55,2.51,6.65,3.72-2.58,2.74-7.87-2.51-6.65ZM857.78,549.28c2.2.08,4.7.23,6.38-1.49l1.03-13.81c-.44-1.83-6.57-1.72-7.41-.06v15.36ZM840.53,550.78c2.73.09,5.54.38,7.5-1.87v-13.49c-1.94-2.21-5.09-.91-7.5-.37v15.73ZM515.97,535.97c-2.34,2.01-1.87,14.57,5.12,10.73,1.11-.79,2.02-9.64,1.12-10.96s-5.34-.54-6.23.22ZM641.78,536.16v11.24c0,.97,3.15,1.88,4.16.41.29-.42,1.15-9.41,1.09-10.13-.26-2.94-4.64-3.51-5.25-1.51ZM63.54,541.78c.32,2.05-.81,7.49.73,8.64.95.71,21.04,4.48,23.27,4.55.68.02,1.3.57,1.9-.41.37-2.6,1.45-7.98-1.33-9.23l-24.57-3.55ZM528.16,549.28h13.5c.41,0,1.1,1.63,1.14,2.24h1.47c2.39-7.08,10.37-6.06,16.51-6.74.76-2.33-3.43-1.59-4.91-1.53-6.13.26-12.02,1.55-17.96,2.29-3.61.45-8.08-1.26-10.88,1.88l1.12,1.86ZM580.08,544.22c-.69-.01-4.62.52-5.26.72-2.95.93-1.29,2.83-1.37,4.62-.04,1.01-.75,2.05-.67,3.07.3,4.17,7,2.26,9.43,1.19,0-2.4,1.25-9.53-2.12-9.6ZM824.78,547.03h-.75v26.22h.75v-26.22ZM521.78,550.03l-5.89.1c-1,.62-1.47,9.15-.15,10.06l6.05.33v-10.49ZM561.53,573.25v-20.61c-1.11-1.53-3.18-1.23-4.9-1.16-2.2.09-4.36.94-6.59.93l-1.26.98v21.35l12.75-1.5ZM864.54,553.02h-6.76s-.75,15.74-.75,15.74c12.32,2.21,6.4-8.09,7.51-15.74ZM526.28,556.4c-.96,5.88.71,14.06,0,20.23,1.11,1.53,3.18,1.23,4.9,1.16,2.2-.09,4.36-.94,6.59-.93l1.26-.98v-20.98c-3.1-2.82-7.67.49-11.49-.4-.46.1-1.2,1.54-1.26,1.9ZM840.53,555.27v14.99h6.75c-1.32-6.96,5.46-18.67-6.75-14.99ZM63.53,556.02v31.47h.75v-29.6c0-.28,1-1.1.75-1.87h-1.5ZM72.59,556.02h-3.85s.02,65.94.02,65.94h3.85s-.02-65.94-.02-65.94ZM194.73,571.72c.3-3.17,1.97-9.02-1.63-10.65l-29.07-4.3.03,9.71,30.67,5.24ZM572.78,567.26l8.68-.71-.37-7.96-8.29.43v8.24ZM77.03,559.02v28.1c0,1.67,8.25,3.62,8.25,1.5v-27.72c-2.15-2.45-5.3-1.88-8.25-1.87ZM520.07,563.69c-6.61-.09-5.97,9.49-3.81,10.2,8.46,2.81,7.65-10.15,3.81-10.2ZM888.54,569.51c-1.4,7.28,2.75,8.9,8.23,4.87-.96-1.11-7.27-5.86-8.23-4.87ZM586.15,570.45c-2.08.1-12.68,1.41-13.44,2.35-.6,1.7-1.04,11.36.02,12.11l17.72-1.87c-.11-5.33,3.08-12.96-4.31-12.59ZM164.78,609.97v-35.59c0-.3.98-1.25.76-2.23l-1.13-1.13c-2.64,1.73-.38,4.91-.38,6.35v32.59h.75ZM169.28,572.88v35.97l1.86,1.12,1.14-1.12v-35.22c0-.18.59-.44.57-.75-.11-1.5-3.12-1.52-3.57,0ZM867.53,574.01h-9.75c.97,3.36-2.3,18.34-.04,19.9,1.36,1.01,10.55-.28,10.53-1.54l-5.86-2.74c-.44-.76.12-2.25-.16-3.18-.45-1.51-3.6-6.6.03-6.44l2.29,7.46,3.61-.07c2.17-3.47-2.18-5.08-2.18-8.52,0-2.06,1.52-2.99,1.54-4.87ZM847.28,574.75l-6.75.75v19.48c2.39-.1,5.01-.96,6.75-2.62v-17.61ZM185.03,577c-10.22-3.43-6.87,1.35-6.72,7.84.17,7.46-.28,14.95.07,22.41.62,1.9,5.5,1.79,6.65.1v-30.35ZM824.78,577h-.75v24.73h.75v-24.73ZM504.53,593.48l16.74-2.39,1.26-.99v-11.24c-5.08-2.64-12.45-.65-18,.37v14.24ZM548.78,601.73c4.13-.74,9.35.03,12.75-2.62v-20.23c0-1.53-9.49-.62-10.88-.38-.84.15-1.4.39-1.87,1.13v22.1ZM190.28,606.97c1.44.22,2.01-.58,2.25-1.88.39-2.14.36-22.32-.12-23.84-.32-1-1.09-1.45-2.12-1.25v26.97ZM539.03,602.1v-20.23c-3.06-2.74-7.74.33-11.52-.27l-.9.59c-.8,1.13.25,8.9.27,10.92.03,3.18-2.88,11.64,2.66,11.57,1.5-.02,9.06-1.26,9.49-2.58ZM876.53,596.11v-11.99l-1.86-1.12c-2.81.58-2.81,13.65,0,14.23l1.86-1.12ZM884.72,592.69c1.46-2.35-.23-3.05-.65-4.87-.51-2.24,1.04-5.33-3.04-4.82-.6,4.3,3.34,5.09,1.5,9.73l2.18-.04ZM895.29,584.5c-.07,6.15,10.2,4.22,6.4-.57l-6.4.57ZM579.54,588.99c-3.53.1-6.93-1.18-7.53,3.34-.2,1.48-.1,6.4.69,7.47.7.95,4.24-.1,4.58,1.57.48,2.32-3.61,1.58-4.54,2.2-1.23.82-.71,7.11-.71,9.02,0,16.53-.61,33.48-.72,50.24-.01,1.94-1.48,4.5.16,6.16.97.99,8.11.32,9.6-.15,3.96-1.27,1.29-4.07,1.4-6.78.27-7.1,2.23-11.03-2.2-17.96l-.73-55.09ZM830.03,590.49v14.99l6-.37c3.45-1.67-.37-11.85.75-15.37l-6.75.75ZM977.21,623.28c.77.77,2.8.99,3.91.95l93.66-13.64,1.25-1.75c-1.01-2.83,2.28-16.08-1.08-16.6l-112.17,15.48c-.33,1.4.47,1.45,1.25,2.12,2.75,2.37,8.34,4.33,10.42,6.82,1.62,1.94,1.72,5.58,2.75,6.61ZM77.78,620.46l6.75-.37,1.12-1.12-.74-21.75c-2.24-1.62-7.39-3.64-7.93.45-.2,1.51.79,2.53.79,2.94v19.86ZM522.53,647.81v-51.7c0-1.9-7.69-.97-7.51,1.49l-.03,51.75,1.56,4.43c-.07.9-4.8.74-4.53,3.01-.98,7.71-.04,15.14.01,22.87,12.65-2.36,26.14-2.37,38.31-6.31l5.19-6.42c-2.57.16-5.32-.26-7.87,0-5.7.58-14.71,3.29-20.22,2.96-1.34-.08-2.51-.91-3.41-1.84v-12.74c0-3.14-4.58-.82-5.98-3,.01-.66,4.05-2.52,4.48-4.5ZM863.78,598.74c-4.27-.95-7.82,1.01-11.62,1.5-2.84.36-9.07-1.58-9.38,2.24l20.99-3.73ZM929.03,600.23c-1.61.04-3.26-.08-4.88,0-1.15.05-2.97-.71-2.61,1.11,1.59,1.79,7.58,2.18,7.49-1.11ZM933.53,600.23l.7,4.17c2,.5,3.87.23,5.92.83,3.57,1.05,8.22,5.72,11.37,2.86-2.37-1.87-15.97-9.89-17.99-7.87ZM875.77,601.73c-12.76,2.42-25.95,3.13-38.62,6-1.16.26-1.31-.5-1.12,1.48l20.63,3.81,18.57-3.05c1.62-.61.87-6.66.53-8.24ZM561.53,617.84c.51-3.1,0-8.53,0-11.99,0-2.06-11.08-.1-12.65.48.55,2.44-1.56,15.19.4,15.67l11.12-1.55c.17-.84,1.02-1.94,1.13-2.62ZM539.03,623.08v-14.24c-1.68-2.22-11.56-.54-12.38,1.12-.44.9-.32,1.68-.41,2.58-.15,1.53.01,12.31.75,12.83l10.8-1.29,1.25-1ZM853.96,616.78c-4.27-.75-32.03-6.13-33.68-4.56l1.28,2.83,30.66,5.37c1.98-.04,2.06-2.12,1.73-3.64ZM848.03,626.45c.25-1.68-.15-2.51-1.68-3.18-9.06-1.05-18.95-4.44-27.95-5.04-6.14-.41-9.91,1.77-2.03,3.52,9.98,2.2,21.53,3.19,31.66,4.71ZM841.25,630.24c-8.65-1.99-17.9-4.06-26.7-5.18-3.07-.39-13.36-2.48-10,2.5,9.1,1.32,18.33,3.63,27.46,4.79,1.68.21,8.47,1.24,9.22.04l.02-2.14ZM555.46,625.78c-3.52-1.26-5.08.29-2.3,3.3-3.26,2.49-4.3,3.37-3.62,7.85,5.51-1.77,6.83-5.7,5.92-11.16ZM832.1,639.76c3.52-3.22-5.94-4.38-7.92-4.83-9.18-2.11-18.89-3.19-28.1-4.59-4.36,2.97.1,4.01,3.18,4.76,6.52,1.59,22.15,5.13,28.26,5.53,1.41.09,3.49.12,4.57-.87ZM527.79,652.67c1.43.23,2.02-.59,2.24-1.87.53-3.05,1.14-10.58.79-13.52-.24-2.01-1.8-3.91-3.09-2.14-1.15,1.58-1.02,16.72.06,17.54ZM538.06,634.85c-4.4,1.21.8,4.19,2.91,4.34,4.14.29,3.91-6.22-2.91-4.34ZM822.53,643.7c-9.43-1.51-21.03-5.51-30.39-6-2.61-.14-5.26-.29-7.11,1.87-.31,1.28,1.81,2.22,2.79,2.45,7.31,1.71,21.74,4.16,29.1,4.65,1.31.09,3.88.34,4.88-.35l.73-2.63ZM649.28,665.04c.57,3.83,0,10.06,0,14.24,0,.57,1.71,1.44,2.51,1.08l90.74-13.57c1.32-.45,1.82-3.01,3.55-3.94,1.62-.87,5.02-.77,5.97-1.52,1.22-.96.22-3.28,1.45-4.54,1.67-1.72,6.46-1.33,7.97-2.52,1.62-1.27.32-3.89,2.22-5.27s5.54-.63,7.83-.79c-.92-8.62,3.51-5.63,9.01-7.87l-.45-1.88-136.4,18.78c-5.67,2.92,2.75,2.68,4.1,4.07.4.41,1.4,3.13,1.49,3.76ZM556.27,639.2c-5.77.8-8.48,5.62-7.49,11.24l7.18-1.45c.23-3.31,1.61-6.61.31-9.79ZM535.29,640.69l.32,10.53c12.55,2.83,9.22-8.68-.32-10.53ZM565.88,644.57c-.35-.62-4.51-2.21-5.1-1.63-.43,3.96.06,6.38,4.54,4.92.83-.59,1.03-2.44.55-3.28ZM814.97,654.11c.25-1.48.37-2.97-1.2-3.54-4.97-1.82-16.83-3.53-22.56-4.44-3-.47-11.9-2.31-13.92-1-2.31,1.49-1.19,3.23,1.13,4.04,5.59,1.97,24.45,5.81,30.41,6.34,1.98.18,4.19-1.02,6.14-1.4ZM767.53,652.8c-2.52.78-.61,3.35,1.43,3.58,9.52.43,21.04,5.34,30.05,6,1.58.12,4.93-.15,5.46-1.9,1.02-3.41-4.19-2.35-6.12-2.74-6.59-1.31-25.41-6.62-30.82-4.94ZM555.45,654.99l-7.45,1.02-.4,3.46c1.06,1.49,8.55,1.1,8.65-1.89l-.8-2.6ZM567.54,654.93c-9.72-1.61-7.94,5.81-.12,2.88l.12-2.88ZM542.78,656.42c-4.31-.07-11.84.89-6.29,5.82l5.58-.9.7-4.92ZM795.54,665.42c-12.36-1.52-24.51-5.84-36.98-5.84l-2.06,2.47,1.32,1.71,29.87,6.18c1.75.67,9.93-2.29,7.84-4.52ZM748.29,666.92c-.13,2.53,3.3,2.97,5.21,3.41,7.83,1.78,20.07,4.56,27.77,5.26,3.73.34,4.48-1.6.4-2.69-5.63-1.49-11.43-2.08-17.07-3.18-5.44-1.07-10.58-3.54-16.31-2.8ZM553.28,680.03c-.56,4.52.41,9.97,0,14.61,4.5,1.53,9.33-.44,13.81-1.41.71-.48.74-14.97.47-16.98-.34-2.55-2.69-4.22-5.1-4.69-5.04-.98-8.65,4.1-9.19,8.47ZM547.38,704.48l.61,7.81c1.34.94,22.24-2.3,25.69-2.91,2.14-.37,12.16-1.78,12.52-3.19.3-1.16-1.08-5.69-3.27-4.88-7.81.35-15.51,2.55-23.28,3.05-1.99.13-11.76-.72-12.27.11Z"/>
        <path class="cls-1" d="M472.85,459.55c3.48,3.46-1.46,5.26-2.11,6.33-1,1.65-1.1,18.07-.74,20.87.31,2.43,2.49,3.64,2.16,5.79-.5,3.28-4.81,4.59-7.35,2.39-3.63-3.14.26-4.48.71-6.72.41-2.08.22-20.81-.37-22.08-.71-1.54-3.17-1.71-2.66-4.86.41-2.56,8.78-3.28,10.36-1.71Z"/>
        <path class="cls-1" d="M477.3,280.07c-1.21,1.35-2.36.33-2.8,3.55-.75,5.45-.24,13.45,1.95,18.46-.9,4.35-9.89,4.15-9.45-.4.19-1.9,2.61-2.4,3.02-4.55.35-1.86.25-13.25-.37-14.59-.8-1.72-3.56-1.84-2.49-5.47.98-3.33,8.96-2.61,10.79.23.48.96-.01,2.05-.65,2.77Z"/>
        <path class="cls-1" d="M542.22,306.33c-2.88-2.85,1.23-5.26,1.3-5.59.4-1.78.22-12.96-.39-14.44-.36-.87-1.88-1.68-2.31-3-1.87-5.88,8.52-5.63,9.84-3.02,1.8,3.58-1.87,4.63-2.48,7.28-.79,3.47-.09,9.6.81,13.11.35,1.35,1.99,2.29,1.87,3.84-.29,3.83-6.13,3.23-8.66,1.82Z"/>
        <path class="cls-1" d="M628.86,452.77c1.82-.26,6.15.17,6.19,2.44.03,1.72-2.68,3.79-3.03,6.76s-.42,11.48-.02,14.3,4.04,6.46-1.81,7.12c-9.02,1.01-3.21-4.77-2.69-7.95.41-2.5.37-13.15-.3-15.36-.76-2.5-5.63-6.26,1.67-7.31Z"/>
        <path class="cls-1" d="M625.85,281.17c1.75-.34,7.19.51,7.58,2.59s-3.23,3.8-3.63,5.91c-.37,1.96-.29,9.1.03,11.18.39,2.5,3.11,4.74,1.11,7.17-2.94,2-9.69.78-7.52-3.72,2-4.15,2.84-9.63,1.86-14.63-.37-1.89-5.72-7.28.57-8.49Z"/>
        <path class="cls-1" d="M1018.28,228.96c-.52,1.7-8.17,1.22-10.16,1.16-2.57-.08-9.07-.4-11.2-.8-1.01-.19-1.68-.67-2.31-1.44l-20.96-28.52-6-2.24-4.12-25.84c.22-1.65,1.17-2.24,2.67-2.59,7.97-1.85,17.88-1.64,26.1-2.4l1.13-1.12.2-4.66c7.35-2.56,5.07,2.64,6.24,6.67.32,1.11,2.96,4.69,3.85,5.9,5.39,7.31,12.52,14.38,18.52,21.26,2.1,5.01-3.95,4.25-3.95,6.9v27.72ZM971.78,192.62h15.38c1.04,0,4.1-1.43,5.9-.85l1.12-1.13c-.39-2.93,2.29-14.19.15-15.68-8-.95-16.1-.07-24.08.76-.9.6-.62,1.2-.55,2.05.42,4.94,1.73,9.89,2.09,14.84ZM1014.53,194.12c.87-.98-2.3-4.71-3.02-5.6-2.45-3.01-6.39-7.89-8.96-10.53-.56-.58-3.07-3.41-3.76-2.6-.59,3.16.57,6.36.67,9.28.07,1.99-1.84,4.56,0,6.9,1.41,1.79,12.11,1.05,15.06,2.55ZM994.66,197.12h-14.25c-.22,0-2.44.82-1.85,1.84l16.47,21.39c.16-4.86-.18-9.77-.02-14.64.09-2.81,2.14-6.31-.34-8.59ZM1003.95,202.44l-3.67-.09c.22,3.39-1.56,10.01,3.83,7.81,1.18-2.65.53-5.07-.16-7.72ZM1013.03,210.61l-.33-6.79-3.34-.63c-1.4,2.51-.25,4.74-.03,7.37l3.71.05ZM1004.03,213.6c-4.98-.57-5.37,3.62-3.64,7.39l3.64.11v-7.5ZM1009.29,214.35c-1.64,8.6,4.76,11.22,3.64,1.23l-3.64-1.23Z"/>
        <path class="cls-1" d="M791.94,445.28c.14,8.61-1.35,17.23.6,25.65-.49,3.96-7.27,3.3-7.33-.06-.03-1.66,1.78-3.48,2.08-5.87s.24-17.58-.88-18.27l-4.07-.81c-1.86-4.19,3.64-8.77,7.49-8.27,5.09.66,8.37,5.24,2.11,7.63Z"/>
        <path class="cls-1" d="M808.78,297.64c2.34-.8,8.53-.17,8.53,3.25,0,1.65-2.67,2.27-3.06,5.21-.69,5.16.11,10.45,1.35,15.23,1.51,5.81-7.24,5.66-7.95,1.93-.22-1.17,1.89-2.96,2.17-5.1.29-2.29.35-10.64-.05-12.76-.29-1.54-5.9-6.07-.99-7.76Z"/>
        <path class="cls-1" d="M364.5,292.48c-2.25,2.72-.47,9.61-.22,12.91s-1.42,4.96,1.95,8.66c-.68,3.63-4.85,5.95-7.91,3.3-3.62-3.14.27-4.5.71-6.72.4-2.04.33-15.95-.17-17.79-.35-1.29-2.08-2.34-2.06-3.94.07-3.67,9.51-3.7,10.38-.58s-1.69,2.99-2.67,4.17Z"/>
        <path class="cls-1" d="M247.81,293.56c-.53.6-1.95.76-2.41,1.69-.49,1-.75,15.33-.38,16.73.22.87,3.46.77,2.12,5.24-.98,3.26-7.56,2.55-8.13-.62-.43-2.42,1.3-4.08,1.58-6.67.31-2.84.37-10.85-.01-13.58-.33-2.37-2.4-3.76-1.42-6.58,1.05-3.03,8.54-2.66,9.32.98.31,1.02.02,2.02-.67,2.8Z"/>
        <path class="cls-1" d="M1182.31,464.01c11.02-3.27,6.52,7.49,8.41,13.76-.15,3.17-6.37,3.14-8.44,2.44-2.8-.94-3.26-15.23.03-16.21Z"/>
        <path class="cls-1" d="M1261.28,470.98l-5.45,1.76c-4.11-1.08-3.13-10.59-2.12-13.82,1.68-2.11,7.57-.96,7.57.82v11.24Z"/>
        <path class="cls-1" d="M729.41,382.82c-2.08.26-5.37-.05-5.87,2.74l.03,46.49c-.02,1-.26,2.01-1.09,2.66-2.38,1.87-15.9,1.16-19.6,1.39-10.74.68-25.61,2.88-36,1.56-1.05-.13-1.95-.18-2.66-1.09-2.23-2.82-.01-42.66-.05-49.38-1.53-3.59-5.75-.31-7.04-4.23-.78-2.36-.67-14.67-.38-17.69.68-7.05,5.75-1.49,7.52-6.72-.11-12.71.22-25.5,0-38.18-.06-3.59-2.15-16.6.2-18.94,1.17-.85,2.55-.84,3.92-.96,12.12-1.02,25.43.28,37.5.81,3.32.14,15.8-1.05,17.29,1.46l1.07,57.38c1.42.95,5.01-.67,5.9,2.35.62,2.12.36,19.65-.72,20.33ZM714.53,319.25v61.07c0,1.97,3.2-.24,4.16-.34,1.95-.2,3.92.18,5.86-.14,2.36-.77.59-11.57,1.92-14.4-.86-2.73-7.09.55-7.44-3.1l.68-55.34c-.42-1.28-6.78-1.85-8.56-1.98-8.25-.58-17.22-.59-25.46-.79-2.3-.06-16.4-.31-16.99.48l.08,57.6c-.32,3.5-5.09,2.62-7.5,2.63l.7,16.16,6.83,1.57c.07,15.54-1.88,31.53-.81,47.11.06.92.23,3.87,1.28,4.12l49.42-2.98.31-46.11c-.39-2.37-2.33-2.9-4.48-2.64v43.83l-1.88,1.12c-8.76.32-17.52.44-26.28.72-4.18.13-10.14,2.36-13.84-.34v-110.89c0-.37,1.86-1.59,2.59-1.53l42.4,1.16-.45,2.31-2.55.67ZM686.03,323.74c-3.29-1.07-6.46-1.07-9.75,0v16.11c0,2.52,7.9,2.14,9.75,1.12v-17.23ZM703.28,323.74c-3.27-.99-6.81-1.2-10.06-.08-1.25.89.31,5.99.36,7.92.09,3.71-2.44,8.82,2.53,9.43,1.99.25,5.77.43,7.17-1.16v-16.11ZM689.03,343.98l1.14,3.74,3.36-1.88-4.49-1.86ZM676.28,370.2c0,.54,9.5,1.78,10.5-.37v-17.98c0-2.63-10.5-2.63-10.5,0v18.36ZM692.78,370.2l10.17-.7v-18.83s-8.67-.33-8.67-.33c-.34.2-1.5,2.04-1.5,2.25v17.61ZM693.31,374.1c-.72.2-1.61.9-1.73,1.69,1.85,4.1-2.11,17.38,3.09,18.37,2.65.5,7.95.76,8.58-2.62.86-4.57-.49-11.5-.08-16.36-.59-1.81-8.13-1.55-9.86-1.07ZM676.28,394.18l10.17-.7v-18.08c-1.01-1.46-10.17-1.08-10.17,1.17v17.61ZM703.28,398.67c-3.79-1.31-7.43-.78-11.25,0v17.61c2.82,2.33,7.7.63,11.25,1.12v-18.73ZM676.28,399.8v17.23c1.09,2.07,10.74,1.09,11.24.35-.66-2.79.11-17.3-1.44-18.38-1.85-.41-9.23-1.05-9.8.8Z"/>
        <path class="cls-1" d="M723.53,523.43l6.65,1.98c-.39,3.53,1.17,16.16-.57,18.33-1.36,1.7-5.75.65-6.08,3.67l-.37,50.58c-.81.96-1.91,1.19-3.07,1.43-7.26,1.54-16.97,1.45-24.6,2.39-8.07,1-18.53,3.46-26.37,3.68-1.3.04-4.84-.33-4.84-1.89v-50.95l-1.26-.99c-1.84-.2-5.42-.03-6.12-2.13-.48-1.42-.42-14.27-.16-16.4.1-.8-.03-1.75.74-2.26l6.83-1.57c1.12-7.78-1.85-56.73.65-59.89.65-.82,1.66-1.07,2.66-1.09,16.98.71,34.18-3.01,51.04-3.03,1.92,0,3.58.48,4.87,1.94v56.2ZM668.78,472.85v59.57l-1.24,1.01-5.56.44-.7,13.16c2.74.01,5.75-.54,7.93,1.48.29.58-.43.98-.43,1.14v50.2c0,.57,1.72,1.44,2.51,1.09l47.63-6.06.15-46.76-2.29-5.57c10.69-.12,11.25-3.58,8.9-13.39l-5.42-.21-1.23-1.77.42-56.62c-1.56-2.24-16.97.59-20.3.79-10.08.59-20.3.34-30.37,1.51Z"/>
        <path class="cls-1" d="M652.28,480.72c-.68,2.44-6.69,2.78-7.42-.14-.55-2.22,2.47-2.83,2.91-5.12,1.04-5.44-.77-13.6.06-19.38l-3.69-1.31c-3.76-8.53,11.19-8.21,13.03-4.4,2.41,5-2.78,3.72-4.88,6.37v23.98Z"/>
        <path class="cls-1" d="M737.61,444.54c4.09,2.97-3.51,5.91-3.61,6.33-.92,3.82-.07,18.1,0,23.13.04,3.14,2.23,7.38-4.05,6.34-5.5-.91-.83-5.64-.45-7.91s.33-20.51-.3-21.37l-2.71-1.15.75-5.96c1.15-.8,9.24-.23,10.37.58Z"/>
        <path class="cls-1" d="M738.65,303.63c-1.01,1.59.3,19.09.24,22.46-.93,4.56-8.48,3.49-7.74-.37.22-1.14,2.47-1.8,2.86-3.87s.43-15.15.03-17.23c-.36-1.87-2.06-1.83-2.96-3.1-3.94-5.54,9.89-6.64,11.07-2.73,1.38,4.59-2.98,4-3.5,4.83Z"/>
        <path class="cls-1" d="M657.16,296.02c3.57,1,2.05,7.06-3.27,5.35-1.28.77-.92,14.35-.89,16.79.02,1.44.92,3.24.67,4.32-.6,2.6-5.36,2.37-7.43,1.69-2.75-3.83,1.05-4.31,1.92-5.66.59-.92.69-13.75.23-15.21-.71-2.31-6.73-1.68-2.48-7.26h11.25Z"/>
        <path class="cls-1" d="M1023.33,307.45c3.04,2.61-.91,5.01-3.6,5.52-.57,3.61,1.53,18-1.45,19.4-2.07.97-4.68-.73-5.26,2.24-.39,2.01-.33,20,.15,21.58.72,2.39,3.43,1.54,4.74,2.76,1.47,1.36,1.59,13.91.97,15.97-.84,2.79-5.59,1.29-5.83,4.66l.63,41.84-1.18,1.07c-13.73,1.46-27.83,1.83-41.73,1.52-3.81-2.76-1.29-7.8-1.22-11.46.22-10.75-.59-21.56.42-32.28-.58-2.42-3.81-1.39-4.99-2.18-.96-.65-1.12-15.3-.57-17.13.71-2.35,3.41-1.64,4.78-2.71,1.93-1.51.32-7.73.39-10.1.03-1.14.68-2.4.72-3.8.28-12.38-.56-24.8.29-37.17l52.73.23ZM974.03,312.13v48.7c0,1.93-4.84,1.64-5.34,2.31l-.7,11.12c9.48.78,5.45,7.07,5.26,13.51-.19,6.77-.58,15.97,0,22.54.12,1.33-.22,2.42,1.16,3.32l2.55-93.34c.72-.91,1.62-.95,2.66-1.09,3.76-.48,23.52-.37,26.28.79,4.22,1.78.18,3.89.33,7.06l.06,85.1,2.31-.44c1.37-12.39.82-25.31-.07-37.78l6.65-.85-.56-10.7c-.91-1.25-5.29.81-5.34-2.31l.68-48.26c-10.59.28-22.83-2.09-33.34-.86-1.09.13-1.93.09-2.59,1.16ZM985.28,328.24c-1.39-1.01-5.25-.56-5.25,1.12v11.24c0,1.53,5.25,1.53,5.25,0v-12.36ZM991.28,328.61v11.99c0,1.53,5.25,1.53,5.25,0v-11.99c0-1.29-4.68-1.84-5.25,0ZM980.03,366.45c6.16,1.84,3.86-.62,3.75-4.13s.18-6.92-.11-10.38l-3.64-1.23v15.73ZM996.53,350.72c-1.61-.03-3.47-.39-4.5,1.12v14.61h4.5v-15.73ZM990.53,370.95v15.36l1.24,1.01,4.76.12c-1.52-6.39,5.49-20.04-6-16.49ZM985.28,370.95l-5.67.7.02,15.06c.93,1.13,5.65,2.14,5.65.35v-16.11ZM989.78,392.3v12.74c0,.21.77,1.75,1.26,1.9l5.41-.11c1.09-6.15,3.59-20.03-6.67-14.53ZM985.28,391.93l-4.76.12-1.24,1.01v13.49l1.09.94,4.91-.57v-14.99ZM995.63,416.13c-6.8.2-13.63.94-20.47.53-2.92.53-2.72,3.39.71,3.78,9.62,1.09,21.52-2.11,31.52-.81l2.64-1.86c.18-.83-.51-1.51-1.24-1.74-2.55-.8-10.01,0-13.16.1Z"/>
        <path class="cls-1" d="M1012.28,497.2l5.11,3.89c-.43,5.63,2.8,14.23-4.43,16.27l-1,43.96-.93.57-42.14,4.52-.1-42.24c-.1-2.73-4.23-1.43-5.32-3.11-1.16-1.78-.94-13.55.21-15.09.57-.76,3.36-.66,4.37-1.26l1.43-52.52c2.22-3.14,15.71-1.54,19.96-1.79,4.71-.27,10.26-1.39,14.94-1.56,2.46-.09,6.2-.61,7.91,1.15v47.2ZM972.53,521.93c-.11,11.11.08,22.24,0,33.34l2.26-.44.31-91c1.55-2.25,12.01-1.32,15.04-1.48,1.46-.08,2.88-.72,4.48-.77,2.29-.07,10.92-.67,11.55,1.26l-.28,87.95c.65,1.17,1.51.29,1.92-.35,1.93-2.99.05-6.9.12-9.78.2-8.23,2.19-17.59-.9-25.46l5.57-1.8.33-10.48-4.23-1.01c-1.55-2.01-.17-4.04-.13-6.18.24-14.11-.26-28.26-.03-42.37l-34.02,1.61-.91.59-.35,50.6c-.97,4.44-5.4.61-6.01,5.23-.15,1.14-.18,4.96.36,5.71l5.01,1.76c1.43,1.66-.08,2.47-.08,3.06ZM995.78,483.34c-1.19-4.41,4.35-15.84-3.98-13.34-2.78.83-2.52,9.11-1.88,11.31.73,2.5,3.85,2.1,5.85,2.03ZM978.53,472.48v11.24c0,1.55,4.08,1.17,5.14.27-.25-2.52,1.98-12.27-1.1-13.33-1.32-.45-3.72.65-4.04,1.82ZM995.78,507.69v-14.24c0-1.07-3.86-1.89-4.9-.4s-1.67,13.78-.77,15.06l4.43.59,1.24-1.01ZM983.78,509.57v-14.61c0-.97-3.15-1.88-4.16-.41-.33.48-1.07,9.97-1.12,11.62-.04,1.13.07,2.28.03,3.4h5.25ZM995.78,513.31l-6.08.44c-.9,1.26-1.07,13.54-.34,14.6l6.42.7v-15.73ZM978.53,529.8l4.76-.12,1.24-1.01v-13.49c-1.45-1.75-4.66-1.68-6,0v14.61ZM995.78,532.79c-1.52-.35-6.75.04-6.75,1.87v11.99c0,1.84,5.61.96,6.75.37v-14.24ZM978.53,548.53l4.76-.12,1.24-1.01v-12.74c0-1.97-4.87-.48-6-.37v14.24ZM1007.79,558.27c.2-1.54-.04-2.86-1.8-2.96l-33.45,3.72v2.99s35.26-3.75,35.26-3.75Z"/>
        <path class="cls-1" d="M1068.53,493.83c1.34.29,3.93.59,4.4,1.98.39,1.13.35,10.3.14,11.92-.62,4.6-4.4,2.73-4.58,3.76.4,9.78-.96,19.42-.74,29.21.1,4.21,1.77,8.79.42,13.08l-1.31.94-33.21,4.28c-9.67,1.66-5.7-8.38-5.58-13.82.2-9.24-.21-18.51-.03-27.76,0-2.24-3.36-2.09-4.14-3.36-.53-.87-.68-13.26-.26-14.52l5.19-2.43.28-49.05c1.22-1.73,26.8-2.07,30.79-2.21,2.71-.09,6.39-2.17,8.63.38v47.58ZM1032.53,453.74c-1.52,10.34,0,28.44,0,39.71,0,.66,1.4,2.72.76,4.12h.74s0-33.34,0-33.34c0-1.25,1.08-6.05,2.82-6.18,3.59-.62,25.83-2.84,27.09-.85l-1.41,84.97,1.5,1.11-.69-34c2.14-2.76,5.42.78,5.98-3.8.27-2.21-.26-4.87-.03-7.16l-3.8-.32-.7-1.55.57-44.8-1.07-2.07c-4.78.84-28.13-.22-30.51,1.47-.34.24-1.17,2.25-1.24,2.68ZM1048.28,466.48v11.24c0,1.53,5.25,1.53,5.25,0v-11.24c0-1.29-4.68-1.84-5.25,0ZM1038.53,467.23v12.36l3.65-.09c.42-2.75,2.66-14.82-2.51-13.39l-1.15,1.12ZM1042.28,488.59c-1.77-.28-2.45-1.45-3.71.47-.44.67-1.31,14.01-.79,14.52l4.5-1.13v-13.86ZM1053.53,487.84h-5.25s-.64,14.12-.64,14.12c2.02,1.19,3.79.79,5.89.11v-14.24ZM1034.03,546.65v-44.96c-1.54-2.07-4.38.29-6.75-.38l-.02,9.32,5.31,1.67-.77,35.46c.8.25,2.07-.5,2.25-1.12ZM1047.53,508.44c-.56,1.79,0,10.03,0,12.74,0,.23,1.5,1.63,2.03,1.76,5.44,1.34,3.61-8.66,3.3-11.58-.11-1.06.89-2.4.36-3.29-1.14-1.92-5.14-1.36-5.68.38ZM1037.78,509.19v13.49c0,.97,3.16,1.88,4.16.41.61-.89,1.66-13.81.39-14.7-1.07-.75-4.15-.5-4.55.8ZM1047.53,526.8v12.36c0,1.54,4.08,1.17,5.14.26-.35-4.27,1.46-8.46.02-12.54l-5.17-.09ZM1037.78,541.04c1.28.94,4.5.32,4.5-1.12v-11.24l-1.19-1.05-3.31.68v12.74ZM1064.03,548.53l-32.25,3v2.99s31.01-3.11,31.01-3.11l.92-.58.33-2.29Z"/>
        <path class="cls-1" d="M1068.63,377.04l-.02,43.06c-1.54,1.95-15.04.89-18.48,1.02-5.64.21-13.89,1.81-19.45.76-1.02-.19-1.75-.58-2.31-1.48l1.02-39.36-.74-2.48c-1.92-.21-4.29.16-4.97-2.14-.51-1.74-.47-12.65-.19-14.87.53-4.18,3.07-1.55,4.93-3.31,2.3-2.18.23-5.17.32-7.18.53-12.05-.67-28.7.75-39.71.16-1.2.29-2.36,1.53-2.97,3.36-1.63,19,.17,23.6.41,3.1.16,13.58-1.02,15.04,1.46l-.39,46.1c-.06,2.47,3.29,1.38,4.16,2.58,1.73,2.37-.31,12.69.25,16.05l-5.06,2.07ZM1065.53,313.25l-31.92-.79-.36,47.6-1.48,2.26c-5.55-.4-5.09,4.61-4.53,9.04.57,4.52,5.44,1.24,5.9,5.37.21,1.85-.63,3.29-.65,5.05-.09,8.09-.83,19.34,0,27.04.12,1.09.39,3.39,1.92,1.85l1.24-88.68c2.93-3.87,8.4-1.3,12.22-1.22,3.17.07,13.94-.86,15.48,1.03s-.13,3.91-.11,6.03c.07,10.96.23,22.01.07,33.03-.21,14.25-2.48,32.46-.82,46.46.18,1.5.34,2.8,2.28,2.58l.72-36.37c6.7-.71,4.64-1.75,4.61-6.04-.04-5.06,1.8-4.64-5-6.23-1.11-1.48.44-2.87.44-3.43v-44.58ZM1054.28,328.24c-10.1-3.38-4.01,8.74-5.25,14.24l5.25-1.13v-13.11ZM1043.03,342.48c-1.08-2.85,2.4-13.2-.46-14.15l-2.53-.09-.68,13,3.67,1.24ZM1043.03,351.47l-3.64,1.23.6,13.43,3.05.33v-14.99ZM1048.28,352.59v12.74c1.34,1.68,4.55,1.75,6,0v-12.74c-.86-1.68-5.5-1.61-6,0ZM1043.78,384.81c.54-3.29,0-9.08,0-12.74,0-1.37-4.26-1.95-5.1.9-.49,1.68-.4,12.04.51,13.27,1.78,1.14,4.22.76,4.58-1.44ZM1054.28,370.95h-6v14.61l1.24,1c1.7.47,4.76.51,4.76-1.75v-13.86ZM1038.53,391.55v11.99c0,2.18,5.25,2.18,5.25,0v-11.24c0-.2-.77-1.75-1.26-1.91l-3.99,1.16ZM1053.53,404.67v-13.11c0-1.53-5.25-1.53-5.25,0v12.74c0,1.7,4.1.9,5.25.37ZM1064.79,413.66c-7.61.96-15.23.44-22.87.75-1.29.05-2.51.71-3.79.78-1.52.08-3.35-.98-4.37-.72-2,.51-1.99,3.33,1.36,3.72,4.94.57,20.86-.28,26.29-.79,1.13-.11,2.24-.36,3.26-.86l.12-2.88Z"/>
        <path class="cls-1" d="M1018.96,440.71c-11.24-2.52,2.71-13.72,8.16-4.87.67,3.5-2.45,4.37-3.2,5.54s-.53,9.58-.38,11.61c.27,3.77,4.23,9.74-3.75,8.24-2.85-1.91-.77-4.81-.71-7.47.09-4.35-.06-8.73-.11-13.07Z"/>
        <path class="cls-1" d="M1091.03,448.5c2.69-3.23,5.52-1.14,8.59-1.09,4.17.07,26.8-.29,28.55,2.19,2.4,6.58.41,13.44.32,19.85-.14,10.5.17,21.01.03,31.51.5,2.58,3.66,1.36,3.83,5.98.04,1.02-.68,7.42-.92,8.15-.49,1.44-2.7,1.07-3.31,1.94-1.26,1.8.18,31.7-.3,37.16-.12,1.31-.16,3.14-1.14,4.1-3.26,3.22-27.86-2.86-33.61-2.42-.65-.18-1.73-1.1-2.08-1.67-1.36-2.27-.8-20.57-.74-24.8.05-3.75,1.72-14.43-.04-17.13-.63-.97-2.12-1.28-2.54-1.95-.59-.94-.69-10.24-.26-11.48s3.63-2.33,3.63-3.12v-47.2ZM1121.03,461.24v86.17l1.12,1.11,1.12-1.11v-32.97c0-.18-.89-.57-.44-1.14,2.68-1.63,4.47.56,4.98-3.33.84-6.45-3.87-4.39-4.25-6.74,1.78-16.78,1.4-33.78.88-50.66l-27.04-2.23c-2.56-.1-3.2,7.14-1.38,7.55l22.36,1.49c.85.04,2.47,1.21,2.64,1.85ZM1094.78,512.19c.11,10.74-.08,21.48,0,32.22l.72.77c3.34,1.16,3.58-.09,3.81-2.98,1.35-16.88-.98-35.6-1.46-52.57l.71-27.51-2.59-1.21-1.08,1.2c-.13,7.7-.21,15.43-.15,23.14.02,2.85,0,5.38-.03,8.22-.02,2.01,1.77,4.63.06,5.98s-3.36.02-3.78,3.73c-.71,6.24,2.52,4.18,3.86,6.16,1.02,1.52-.07,2.29-.06,2.86ZM1110.53,466.11v13.49l5.91-.1.52-12.69-6.42-.7ZM1110.53,488.59v13.86c1.5,1.75,5.25,1.75,6.75,0v-12.74c-2-2.25-4.13-2.06-6.75-1.12ZM1116.4,508.94c-9.48-2.13-5.78.81-5.8,7-.01,2.76-1.55,5.17.05,7.75l5.89.11c-.89-5.06,1.96-10.19-.14-14.86ZM1116.53,541.78v-12.36c-1.55-1.42-5.31-2.67-6.37-.37-.44,6.24-2.86,14.46,6.37,12.73ZM1115.78,547.77c-.3-3.68-7.03-1.93-9.74-2.99.33,3.5,7.19,2.54,9.74,2.99ZM1122.52,555.26c.1-.08.98-2.31.04-2.63-8.25-1.17-16.57-2.48-24.94-2.85-.72-.03-2.49-1-2.83.63-.28,1.39,1.47,1.97,2.61,1.87,3.23-.39,24.12,3.76,25.12,2.98Z"/>
        <path class="cls-1" d="M1128.16,308.76c3.81,1.07,1.16,15.67,1.09,19.08-.15,7.51-1.19,24.32.03,30.76.39,2.08,2.58,1.86,3.57,3.92,1.38,2.9.17,4.23.19,6.55.01,2.09,1.74,4.31-.39,6.37-1.06,1.02-3.35.63-3.38,2.62-.33,10.26-1.05,20.48-.77,30.77.07,2.6,2.03,11.4.08,12.75l-33.4-.44-2.49-2,1.35-42.18-5.16-1.98c.33-3.17-1.08-12.9.58-14.97.99-1.23,3.79-.77,3.84-2.91l.37-46.83c.17-.35,1.36-1.51,1.49-1.51h33ZM1129.29,373.2l-.1-8.53-3.67-1.58-.77-1.5,1.21-48.36c-1.74-2.38-23.97,1.04-28.19.02l.09,7.42c4.05,2.65,24.15-2.39,25.4,2.02-.35,2.02-1.28,2.85-1.54,5.13-1.62,14.58,1.3,31.9,1.27,46.63-.02,11.54-2.37,23.15-.87,34.74,1.02,1.59,2.59.32,2.64-1.15l-.69-33.62c.52-1.79,3.73-1.16,5.2-1.21ZM1099.28,373.95c.18.24-1.66,2.81-1.89,3.72-.8,3.15-.98,26.21-.33,29.6.24,1.26.92,1.89,1.87,2.64,1.72,0,1.75-1.28,1.9-2.58,1.69-15.1.02-36.17,0-51.71-.02-9.97-.52-20.19.53-30.03-7.38-4.82-3.47,9.82-3.5,13.52-.04,5.22-1.39,10.82-.84,16.51.49,5.02,4.47,6.12-4.5,7.52l.02,10.07,6.75.75ZM1118.03,328.99h-6.75v12.36c0,1.84,5.61.96,6.75.37v-12.74ZM1118.03,351.47c-1.65-.38-5.3-1.65-6.42-.04.08,2.46-1.56,14.82-.21,15.67l6.64.11v-15.73ZM1111.28,370.95v15.73h6.75v-15.73h-6.75ZM1118.03,404.67v-12.36c-1.62-1.54-5.2-2.83-6.82-.81l-.3,12.43c1.73,2.52,4.62,1.39,7.12.74ZM1124.66,418.04c.99-.63,1.24-3.85-1.01-3.63-7.77.74-16.38-1.8-24.03-.79-1.63.22-2.38.57-3.33,1.92l1.88,1.86c4.42-.6,23.95,2.27,26.5.64Z"/>
        <path class="cls-1" d="M851.48,261.11c-7.41-7.41-8.45-18.33-5.31-28.02,1.25-3.87,7.41-10.92,11.4-11.83,19.73-4.51,25.39,34.6,8,43.2-6.05,2.99-9.74,1-14.09-3.35ZM859.82,225c-12.51,1.26-15.02,28.85-3.48,35.37,9.57,5.41,15.75-8.57,15.76-16.42,0-6.59-3.83-19.79-12.28-18.94Z"/>
        <path class="cls-1" d="M755.66,173.77c-.19.3-2.42.72-3.3,1.56-2.52,2.44-.37,7.13-.3,10.13.11,4.82.23,10.27,0,15.05-.09,1.95-.94,12.12-1.46,12.78-1.31,1.66-10.55,1.17-13.23,1.08-3.41-.11-9.48-.39-12.67-.83-1.29-.18-2.46-.93-3.64-1.41l-24.32-37.34-5.36-1.02,2.2-33.18c.4-.88,1.02-.95,1.84-1.16,7.39-1.85,17.64-1.88,25.38-3.12l1.12-1.13.43-4.81c6.82-2.35,4.7,1.46,5.08,4.74.49,4.24,13.26,18.96,16.79,22.95,2.29,2.59,9.46,8.48,10.84,10.9.66,1.17,1.28,3.7.59,4.8ZM722.04,145.41c-3.3-.02-22.57,1.4-23.67,2.96l-1.51,18.8c1.34,1.84,17.65-.52,20.69-1.14,2.98-6.43,4.37-13.54,4.49-20.62ZM728.64,145.58l-2.11-.16-1.94,21.03c7.69,1.18,15.82,1.31,23.68,2.2l-19.64-23.06ZM719.77,200.86l.44-28.52-2.3-.76-15.38,1.57,17.24,27.71ZM746.78,176.88l-21.75-1.5v28.1c.48.76,1.03.96,1.88,1.12,6.13,1.11,13.58.93,19.87,1.51v-29.22Z"/>
        <g>
          <path class="cls-1" d="M415.18,657.82l-60.27,8.42-3.05-.77c-.78-5.41-.95-9.96,1.97-14.62-.49-25.24.5-50.52-.01-75.75-.08-3.77-1.33-8.68-1.25-12.58.04-2.06.25-7.56,1.96-8.37l47.64-4.86,12.04.69-.45,91.87c1.42,5.31,2,10.44,1.43,15.97ZM406.89,553.18l-22.74,2.83-25.39,1.61c-2.28.75-.95,8.45-1.12,10.65l.59.91,49.59-4.51c3.43-1.09,3.7-11.63-.93-11.5ZM409.96,568.01h-3.68v77.18h3.68v-77.18ZM401.78,630.95v-61.44c-1.68.44-1.43,2.02-1.54,3.33-.5,6.3.73,12.54.83,18.81.16,10.29.14,21,0,31.46-.03,2.37-2.1,6.18.72,7.84ZM395.78,571.01c-2.02.18-12-.93-12,1.87v30.72c3.28,2.75,8.19.18,12,.37v-32.97ZM374.78,605.1v-31.47c0-2.3-8.42.19-10.02-.27l-1.12,1.13.22,31.79c.88,1.26,10.19,1.44,10.92-1.17ZM395.78,609.22l-10.74-.03c-.49.15-1.26,1.69-1.26,1.9v29.97c0,2.23,10.42-.11,12-.37v-31.47ZM363.53,613.34v29.97c2.7,2.16,8.52,1.5,11.25-.75v-30.72c0-1.73-10.61-.78-11.25,1.5ZM398.03,645.19c-6.75-.57-13.35,1.26-19.96,2.15-3.63.49-8.55.26-11.91.84-1.28.22-2.1.82-1.87,2.24,1.86-.03,3.74.11,5.61,0,6.4-.38,15.93-1.95,22.43-3.07,1.51-.26,4.95-.7,5.7-2.16ZM410.78,649.68c-18.04,1.3-36.19,4.06-54.01,7.11-2.9,4.96,2.9,4.36,6.37,4.11,12.18-.84,26.07-4.31,38.35-5.88,3.06-.39,6.31.5,9.18-.95l.11-4.39Z"/>
          <path class="cls-1" d="M203.68,518.66c.61.98.29,21.95-.27,23.12-.39.83-1.26,1.4-2.2,1.44-1.46.06-11.19-1.36-12.13-2.11-3.37-5.24-1.3-11.53-1.02-16.97.12-2.26-2.29-5.88,1.24-6.93,1.74-.52,13.83.59,14.37,1.45ZM193.42,533.41c.41.26,4.98,1.04,5.52.16-.26-5.32,4.05-12.07-3.81-12.07-4.58,0-2.45,11.43-1.71,11.9Z"/>
        </g>
        <path class="cls-1" d="M672.53,483.72c.36-1.11,4.35-1.73,5.64-1.86,7.59-.77,16.33-.49,24.02-.73,2.89-.09,11.23-2.46,12.76.74l-.45,66.27c.85,11.13-1.01,23.58,0,34.53.26,2.81.79,4.13,3.02,5.96.02,2.36-15.05,3.79-17.62,4.11-7.09.88-16.25,2.1-23.23,2.31-1.52.04-3.19.22-4.13-1.18v-110.14ZM702.53,489.33c-2.43.19-8.78-.79-10.13,1.49l-.05,15.78c1.26,1.76,8.09.28,10.19-.04v-17.23ZM686.03,490.83c-2.92-1.27-5.47-.03-8.48.14l-1.27.98v15.73l1.24,1c2.89.3,6.32.67,8.51-1.75v-16.11ZM692.78,518.18v16.48c2.35,2.24,6.7,1.04,9.56.19l.09-18.46c-2.28-.09-8.89-.93-9.65,1.78ZM677.03,537.29l9-1.87v-17.23c-.83-1.33-2.01-1.05-3.34-1.16-1.44-.12-2.99,0-4.42.16l-1.24,1.01v19.11ZM709.28,578.87c-.48-14.58.36-29.26,0-43.83l-.75,2.61c1.22,13.94-2.05,29.01-.79,42.75.07.81.29,2.95,1.54,2.22,1.87-1.26.03-2.97,0-3.75ZM702.53,539.54c-3.67-.04-7.62-.32-10.92,1.46l.02,17.26c1.14,2.48,7.23.1,9.66.65l1.24-1.01v-18.36ZM677.15,561.16c2.31.19,8.61.79,9.51-1.89.47-1.39.41-13.58.16-15.65-.1-.8.03-1.72-.74-2.26-2.33-.42-8.27-1.2-9.43,1.17-.78,1.61-.37,18.08.49,18.63ZM702.43,580.64l.51-16.36c-.78-2.03-8.96-.97-10.16-.39-3.25,1.55.02,14.07-.4,17.65.77,1.2,8.34-.32,10.05-.89ZM677.15,565.12c-1.26.8.28,15.3.21,17.92,2.31,1.36,8.83,1.35,9.42-1.92.29-1.59.15-14.72-.33-15.41l-9.31-.59Z"/>
        <path class="cls-1" d="M858.31,228.74c14.17-4.29,14.99,29.33,2.08,29.87-7.78.33-9.8-10.93-9.34-16.9.3-3.97,3.1-11.71,7.26-12.97Z"/>
      </g>
    </g>
  </g>
</svg>